<svg xmlns="http://www.w3.org/2000/svg" viewBox="0 0 39.69 39.69"><defs><style>.a{fill:#ffc111;}</style></defs><title>animal-planet</title><path class="a" d="M15.34,9.11c2.85.49,4.09,1.14,6.38.63,1.46-.33,2.38-.92,5.38-1.62,2.18-.51,2.81-.46,3.38-.25,1.5.54,1.3,1.71,3,2.87,1.91,1.31,3.23.57,4.25,1.75.49.57.72,1.35.5,4-.5,5.95-2.13,7.46-1.06,9.62.84,1.69,2.21,1.51,2.53,3.13.36,1.86-1.12,3.87-2.59,4.88a7.27,7.27,0,0,1-4.87,1,10.18,10.18,0,0,1-4.38-1.37c-3.7-2.17-3.21-5-5.87-5.88a6.14,6.14,0,0,0-6.62,2.25c-1.48,2.35.29,5.24-.87,6-.78.51-2-.84-4.5-2-3.2-1.48-4-.55-5.62-1.5C1,30.61,1,24.67,1.09,18.73c0-4.64.07-7,1.5-8.37C5.56,7.44,12.17,8.57,15.34,9.11Z"/><path d="M4.48,11.8h-.6a1.12,1.12,0,0,0-1.11,1L.07,31v.23H2.31v-.07L3,26.56a1.12,1.12,0,0,1,1.11-1h.16a1.12,1.12,0,0,1,1.11,1L6,31.14v.07H8.28V31L7,22.62,5.58,12.76a1.14,1.14,0,0,0-.38-.68A1.12,1.12,0,0,0,4.48,11.8Zm-1,11.57h0l.71-4.82.71,4.82Z"/><path d="M32,11.8H29.53a0,0,0,0,0,0,0L28.09,20.9v.24h2.08l.15,0v0h0v-.06l.43-2.78.43,2.78v.06h0v0l.15,0h2.08V20.9L32,11.84A0,0,0,0,0,32,11.8Z"/><rect x="13.41" y="11.8" width="2.24" height="9.33" rx="1.12" ry="1.12"/><path d="M27.68,11.8H16.05a0,0,0,0,0,0,0v1.08A1.12,1.12,0,0,0,17.14,14h3.33L16.78,15.3A1.12,1.12,0,0,0,16,16.36v.22a1.12,1.12,0,0,0,.76,1.06l3.69,1.25H17.14A1.12,1.12,0,0,0,16,20h0a1.12,1.12,0,0,0,1.12,1.12h9.46A1.12,1.12,0,0,0,27.71,20v-.22A1.12,1.12,0,0,0,27,18.73l-3.54-1.2a1.12,1.12,0,0,1,0-2.12L27,14.21a1.12,1.12,0,0,0,.76-1.06V11.84A0,0,0,0,0,27.68,11.8Z"/><path d="M11.91,11.8a1.12,1.12,0,0,0-1.12,1.12v2.16l-1-2.55a1.12,1.12,0,0,0-1-.73H8.32A1.12,1.12,0,0,0,7.2,12.92V20a1.12,1.12,0,0,0,1.12,1.12h0A1.12,1.12,0,0,0,9.44,20V17.85l1,2.55a1.12,1.12,0,0,0,1,.73h.47A1.12,1.12,0,0,0,13,20V12.92a1.12,1.12,0,0,0-1.12-1.12Z"/><path d="M28,22.25a1.12,1.12,0,0,0-1.12,1.12v1L26.45,23a1.12,1.12,0,0,0-1.07-.78h-.47a1.12,1.12,0,0,0-1.12,1.12v6.72a1.12,1.12,0,0,0,1.12,1.12h0A1.12,1.12,0,0,0,26,30.09v-1l.41,1.3a1.12,1.12,0,0,0,1.07.78H28a1.12,1.12,0,0,0,1.12-1.12V23.37A1.12,1.12,0,0,0,28,22.25Z"/><path d="M36,17.77V11.84a0,0,0,0,0,0,0H33.84a0,0,0,0,0,0,0V20a1.12,1.12,0,0,0,1.12,1.12h2.24A1.12,1.12,0,0,0,38.28,20h0a1.12,1.12,0,0,0-1.12-1.12h0A1.12,1.12,0,0,1,36,17.77Z"/><path d="M34.92,22.25a1.12,1.12,0,0,0-1.12,1.12v1.12h1.12v5.6A1.12,1.12,0,0,0,36,31.21h0a1.12,1.12,0,0,0,1.12-1.12v-5.6h1.12V23.37a1.12,1.12,0,0,0-1.12-1.12Z"/><path d="M21,22.25h-.6a1.12,1.12,0,0,0-1.1.94L18.07,31v.24h2l.19,0v0h0v-.06l.43-2.65.43,2.65v.06h0v0l.19,0h2V31l-1.27-7.78A1.12,1.12,0,0,0,21,22.25Z"/><path d="M16.56,29V24a1.71,1.71,0,0,0-1.71-1.71h-.49a0,0,0,0,0,0,0v8.29a.62.62,0,0,0,.62.62h1A1.71,1.71,0,0,0,17.7,29.5V29Z"/><path d="M33.43,23.37h0a1.12,1.12,0,0,0-1.12-1.12H30.59a1.12,1.12,0,0,0-1.12,1.12v6.72a1.12,1.12,0,0,0,1.12,1.12h1.72a1.12,1.12,0,0,0,1.12-1.12h0A1.12,1.12,0,0,0,32.31,29h-.6V27.85h.6a1.12,1.12,0,0,0,1.12-1.12h0a1.12,1.12,0,0,0-1.12-1.12h-.6V24.49h.6A1.12,1.12,0,0,0,33.43,23.37Z"/><path d="M10.39,22.25H8.85c-.11,0-.12,0-.12,0v8.26a.65.65,0,0,0,.65.65h.94a.64.64,0,0,0,.64-.64V29c0-.09,0-.1,0-.11a3.36,3.36,0,0,0,2.94-3.63A3.5,3.5,0,0,0,10.39,22.25ZM11,26.66V24.55a1.12,1.12,0,0,1,0,2.11Z"/></svg>