<?xml version="1.0" encoding="utf-8"?>
<!-- Generator: Adobe Illustrator 21.0.0, SVG Export Plug-In . SVG Version: 6.00 Build 0)  -->
<svg version="1.1" id="Capa_1" xmlns="http://www.w3.org/2000/svg" xmlns:xlink="http://www.w3.org/1999/xlink" x="0px" y="0px"
	 viewBox="0 0 40.3 43" style="enable-background:new 0 0 40.3 43;" xml:space="preserve">
<style type="text/css">
	.st0{fill:#FFC111;}
</style>
<title>ico-pata-gato_1</title>
<ellipse class="st0" cx="-83.7" cy="90.6" rx="2.5" ry="1.8"/>
<path class="st0" d="M-65.3,69.5c0-2.1-2.5-2.7-2.5-4.7c0-2.4,4.3-2.9,1.5-6.2c-1.7-2.1-5.4-2.4-7.7-0.7c-2.4,1.9,0.7,5-2.1,5.7
	c-1.8-2.4-3.6-1.7-7.3-1.7c-3.7,0-5.5-0.7-7.3,1.7c-2.7-0.7,0.3-9.3-7.7-6.6c-5.8,2-0.6,5.5-0.6,8.1c0,2.7-5.6,5.9,0.6,8.1
	c7.9,2.8,5.1-5.9,7.7-6.6c1.8,2.4,3.6,1.7,7.3,1.7c3.7,0,5.5,0.7,7.3-1.7c2.8,0.8-0.5,4.3,3,6.2C-69.9,74.6-65.3,72.8-65.3,69.5z"/>
<path class="st0" d="M-71,86c-5.5,0.9-17.3,2-22.3-0.3c-3.7-1.7-3.1-1-3.1-4.6c7.9,2.7,21.9,2.7,29.9,0C-66.7,84.5-66,85.2-71,86z"
	/>
<path class="st0" d="M-88.7,76.5c4.3-1,15.1-2.5,18.6,1.2c-3.1,3.4-18.7,3.4-21.7,0.1C-91.2,77.1-89.4,76.7-88.7,76.5z"/>
<path id="XMLID_1136_" d="M-65.3,70.4c0,6.4-12.8,6.6-13.1,0.2h-12.3c-0.2,4-6.2,6.3-10.4,3.9c-1.6-0.9-2.7-2.5-2.7-4.1s2.4-3,2.4-4
	s-2.4-2.5-2.4-4c0-1.6,1-3.2,2.7-4.1c4.1-2.4,10.2-0.1,10.4,3.9h12.4c0.2-5.1,9.3-6.6,12.3-2.1c1.8,2.7-0.8,3.5-1,5.7
	C-67.2,67.2-65.3,68.4-65.3,70.4z M-66.9,70.4c0-1.8-2.3-2.5-2.4-4c-0.2-1.8,2.8-2.4,2.2-4.8c-1.4-5.7-12.9-2.3-8.9,2.7l-1.4,0.7
	c-0.4-0.5-0.7-1-0.8-1.6h-12.7c-0.2,0.6-0.4,1.1-0.8,1.6l-1.4-0.7c2.8-3.5-2.7-7.3-6.9-5.1c-4.9,2.6,0.2,4.7,0.2,7.2
	c0,2.3-4.5,4.1-1,6.7c4,3,10.7-0.8,7.7-4.7l1.4-0.7c0.4,0.5,0.7,1,0.8,1.6h12.7c0.2-0.6,0.4-1.1,0.8-1.6l1.4,0.7
	C-80.3,73.8-66.9,76.8-66.9,70.4z"/>
<circle class="st0" cx="22.7" cy="19.8" r="16.2"/>
<path d="M-72.9,76c-3.2-0.6-7.4-0.9-11.9-0.9s-8.7,0.3-11.9,0.9c-3.9,0.8-5.8,1.8-5.8,3.1v6c0,1.4,1.9,2.4,5.8,3.1
	c2,0.4,4.5,0.6,7.2,0.8c-0.5,0.6-0.8,1.3-0.8,2.1c0,2.2,2.5,4,5.5,4s5.5-1.8,5.5-4c0-0.8-0.3-1.5-0.8-2.1c2.7-0.1,5.2-0.4,7.2-0.8
	c3.9-0.7,5.8-1.7,5.8-3.1v-6C-67.1,77.8-69,76.8-72.9,76z M-96.3,77.5c3.1-0.6,7.1-1,11.3-1s8.2,0.3,11.3,1c3.1,0.6,4.3,1.3,4.7,1.7
	c-0.3,0.3-1.6,1-4.7,1.7c-3.1,0.6-7.1,1-11.3,1s-8.2-0.3-11.3-1c-3.1-0.6-4.3-1.3-4.7-1.7C-100.6,78.8-99.4,78.1-96.3,77.5z
	 M-80.7,91.5c0,1.7-1.9,3-4.1,3c-2.3,0-4.1-1.4-4.1-3c0-1.7,1.9-3,4.1-3C-82.5,88.5-80.7,89.8-80.7,91.5z M-73.5,87
	c-3.1,0.6-7.1,0.9-11.3,0.9c-4.2,0-8.2-0.3-11.3-0.9c-3.3-0.7-4.5-1.4-4.7-1.7v-4.6c0.9,0.4,2,0.7,3.3,1c3.4,0.7,7.9,1.1,12.7,1.1
	c4.8,0,9.3-0.4,12.7-1.2c1.3-0.3,2.4-0.6,3.3-1v4.6C-69,85.6-70.2,86.3-73.5,87z"/>
<g>
	<g>
		<path d="M34.1,9.1C30.8,5.8,26.4,4,21.7,4C17,4,12.5,5.9,9.2,9.3c-0.4,0.4-0.4,1,0,1.3c0.4,0.4,1,0.4,1.3,0c3-3,6.9-4.7,11.2-4.7
			c8.6,0,15.6,7,15.6,15.6s-7,15.6-15.6,15.6s-15.6-7-15.6-15.6v-0.2l1.6,1.6c0.2,0.2,0.4,0.3,0.7,0.3S8.8,23,9,22.9
			c0.4-0.4,0.4-1,0-1.3l-3.2-3.2c-0.4-0.4-1-0.4-1.3,0l-3.2,3.2c-0.4,0.4-0.4,1,0,1.3c0.4,0.4,1,0.4,1.3,0l1.6-1.6v0.2
			c0,4.7,1.8,9.1,5.1,12.4c3.3,3.3,7.7,5.1,12.4,5.1s9.1-1.8,12.4-5.1c3.3-3.3,5.1-7.7,5.1-12.4S37.4,12.4,34.1,9.1z"/>
		<path d="M26.7,15.1L15.2,26.7c-0.4,0.4-0.4,1,0,1.3c0.2,0.2,0.4,0.3,0.7,0.3s0.5-0.1,0.7-0.3l11.6-11.6c0.4-0.4,0.4-1,0-1.3
			C27.7,14.8,27.1,14.8,26.7,15.1z"/>
		<path d="M23.7,22.9c-1.3,1.3-1.3,3.5,0,4.8c0.6,0.6,1.5,1,2.4,1s1.8-0.4,2.4-1c1.3-1.3,1.3-3.5,0-4.8c-0.6-0.6-1.5-1-2.4-1
			S24.4,22.3,23.7,22.9z M27.1,26.4c-0.3,0.3-0.7,0.4-1.1,0.4s-0.8-0.2-1.1-0.4c-0.6-0.6-0.6-1.5,0-2.1c0.3-0.3,0.7-0.4,1.1-0.4
			s0.8,0.2,1.1,0.4C27.7,24.8,27.7,25.8,27.1,26.4z"/>
		<path d="M17.4,14.3c-0.9,0-1.8,0.4-2.4,1s-1,1.5-1,2.4c0,0.9,0.4,1.8,1,2.4s1.5,1,2.4,1c0.9,0,1.8-0.4,2.4-1s1-1.5,1-2.4
			c0-0.9-0.4-1.8-1-2.4C19.1,14.6,18.3,14.3,17.4,14.3z M18.4,18.7c-0.3,0.3-0.7,0.4-1.1,0.4c-0.4,0-0.8-0.2-1.1-0.4
			c-0.3-0.3-0.4-0.7-0.4-1.1c0-0.4,0.2-0.8,0.4-1.1c0.3-0.3,0.7-0.4,1.1-0.4c0.4,0,0.8,0.2,1.1,0.4c0.3,0.3,0.4,0.7,0.4,1.1
			C18.9,18.1,18.7,18.4,18.4,18.7z"/>
	</g>
</g>
</svg>
