<svg xmlns="http://www.w3.org/2000/svg" viewBox="0 0 659.4 383.42"><title>gato-flat</title><g style="isolation:isolate"><g id="Capa_2" data-name="Capa 2"><g id="Capa_1-2" data-name="Capa 1"><g style="mix-blend-mode:multiply"><path d="M14.53,343.93c-5.61-.39-10.84,1.11-11.71,3.35-.57,1.5,1.48,2.63,1.48,2.63,1.22.67.86,1.61-.8,2.08,0,0-2.79.8-3.37,2.29-.87,2.24,3,4.37,8.58,4.76a17.81,17.81,0,0,0,9.68-2.11c1.11-.68,2-1.25,2-1.27s1.57-.26,3.49-.54c0,0,4.56-.68,5.23-2.42s-3.14-3-3.14-3c-1.6-.53-2.9-1-2.9-1s-.44-.68-1-1.48C22.12,347.24,20.12,344.32,14.53,343.93Z" style="fill:#2fc0a2"/><path d="M35.28,352.16c-2.31.08-4.34-.65-4.53-1.63h0c-.16-1.15,1.52-2.08,3.83-2.16l6.32-.17c2.92,0,6.2.68,6.47,2h0c.64,1.92.3,1.86-5.68,1.91Z" style="fill:#2fc0a2"/><path d="M33,343.4l-4.13.82c-1.16.25-1.91.7-2.1,1.2a.85.85,0,0,0,.35,1c.93.81,3.23,1.14,5.14.74l5.42-.95c1.37-.24,2.23-.7,2.44-1.25a.29.29,0,0,0,0-.18c-.21-.5-3.19-1.21-5.2-1.42A5.79,5.79,0,0,0,33,343.4Z" style="fill:#2fc0a2"/><path d="M34.6,353.94c-2.13-.39-4.6,0-5.52.94h0c-1,1.07-.12,2.18,2,2.57l5.86,1c2.75.42,6.39.2,7.65-1h0c2.05-1.74,1.68-1.73-3.95-2.58Z" style="fill:#2fc0a2"/><path d="M25.9,361.95l-3.3-1.34c-.92-.39-1.28-.92-1.09-1.42a1.82,1.82,0,0,1,1.07-.89,7.91,7.91,0,0,1,5.43,0l4.43,1.63c1.12.41,1.59,1,1.38,1.51a.47.47,0,0,1-.1.17c-.57.44-3.92.71-6,.63A4.89,4.89,0,0,1,25.9,361.95Z" style="fill:#2fc0a2"/></g><g style="mix-blend-mode:multiply"><path d="M155.58,343.86c-5.82-.54-11.51.9-12.71,3.23-.8,1.56,1.2,2.79,1.2,2.79,1.19.73.68,1.71-1.11,2.16,0,0-3,.77-3.84,2.32-1.2,2.33,2.54,4.65,8.36,5.19a20,20,0,0,0,10.42-2c1.26-.69,2.3-1.26,2.31-1.28s1.68-.23,3.73-.49c0,0,4.87-.6,5.8-2.41s-2.9-3.22-2.9-3.22c-1.61-.59-2.91-1.09-2.9-1.1s-.37-.72-.84-1.57C163.1,347.52,161.39,344.41,155.58,343.86Z" style="fill:#2fc0a2"/><path d="M176.25,353c-2.43,0-4.46-.79-4.53-1.82h0c0-1.21,1.87-2.15,4.3-2.18l6.64,0c3.07,0,6.41.86,6.51,2.27h0c.42,2,.07,2-6.2,1.86Z" style="fill:#2fc0a2"/><path d="M175.07,343.75l-4.44.76a3.31,3.31,0,0,0-2.36,1.21.83.83,0,0,0,.23,1c.87.87,3.23,1.27,5.3.9l5.81-.86c1.47-.21,2.43-.68,2.72-1.25a.33.33,0,0,0,.06-.19c-.15-.52-3.18-1.34-5.27-1.61A6.06,6.06,0,0,0,175.07,343.75Z" style="fill:#2fc0a2"/><path d="M175.29,354.84c-2.18-.46-4.82-.08-5.91.85h0c-1.2,1.09-.42,2.28,1.76,2.74l6,1.2c2.83.51,6.67.36,8.15-.9h0c2.38-1.77,2-1.77-3.8-2.8Z" style="fill:#2fc0a2"/><path d="M165.12,363l-3.28-1.48c-.91-.43-1.22-1-1-1.52a2.21,2.21,0,0,1,1.24-.9,8.29,8.29,0,0,1,5.7.12l4.42,1.82c1.12.46,1.54,1.05,1.24,1.62a.51.51,0,0,1-.13.18c-.65.45-4.2.65-6.36.52A4.84,4.84,0,0,1,165.12,363Z" style="fill:#2fc0a2"/></g><g style="mix-blend-mode:multiply"><path d="M309.82,345.45c-5.82-.54-11.51.9-12.71,3.23-.8,1.55,1.2,2.79,1.2,2.79,1.19.73.68,1.71-1.12,2.16,0,0-3,.77-3.84,2.32-1.2,2.33,2.54,4.65,8.36,5.19a20,20,0,0,0,10.42-2c1.26-.69,2.3-1.26,2.31-1.28s1.69-.23,3.73-.48c0,0,4.87-.6,5.8-2.41s-2.9-3.22-2.9-3.22c-1.61-.59-2.91-1.09-2.9-1.1s-.37-.72-.84-1.57C317.34,349.1,315.63,346,309.82,345.45Z" style="fill:#2fc0a2"/><path d="M330.48,354.58c-2.43,0-4.46-.79-4.53-1.82h0c0-1.21,1.87-2.15,4.3-2.17l6.64,0c3.07,0,6.41.86,6.51,2.27h0c.42,2,.07,2-6.2,1.86Z" style="fill:#2fc0a2"/><path d="M329.31,345.33l-4.44.76a3.32,3.32,0,0,0-2.36,1.21.84.84,0,0,0,.23,1c.87.87,3.23,1.27,5.3.9l5.81-.86c1.47-.21,2.43-.68,2.72-1.25a.32.32,0,0,0,.06-.19c-.15-.52-3.18-1.34-5.27-1.61A6.07,6.07,0,0,0,329.31,345.33Z" style="fill:#2fc0a2"/><path d="M329.53,356.42c-2.18-.46-4.83-.08-5.91.85h0c-1.2,1.09-.42,2.28,1.76,2.74l6,1.2c2.83.51,6.67.36,8.16-.9h0c2.38-1.77,2-1.77-3.8-2.8Z" style="fill:#2fc0a2"/><path d="M319.36,364.61l-3.28-1.48c-.91-.43-1.22-1-1-1.52a2.21,2.21,0,0,1,1.24-.9,8.29,8.29,0,0,1,5.69.12l4.42,1.82c1.12.46,1.54,1,1.24,1.62a.5.5,0,0,1-.13.18c-.65.45-4.21.65-6.37.52A4.85,4.85,0,0,1,319.36,364.61Z" style="fill:#2fc0a2"/></g><g style="mix-blend-mode:multiply"><path d="M75.77,334.6c-5.07.77-7.8,3-6.1,5,1.13,1.35,4.05,1.89,4.05,1.89,1.73.32,2.44,1.17,1.57,1.88A1.8,1.8,0,0,0,75,346c1.7,2,7.17,3,12.24,2.28S93,344.62,93,344.62c.19-.78.34-1.43.33-1.44s1-.52,2.31-1.13c0,0,3.05-1.45,1.73-3s-5.83-1.88-5.83-1.88c-1.9-.13-3.45-.24-3.46-.25l-2.4-1A20.58,20.58,0,0,0,75.77,334.6Z" style="fill:#2fc0a2"/><path d="M101.83,337.39a7.81,7.81,0,0,1-5.51-.48h0c-1.36-.92-1-2,.85-2.54l5.05-1.37c2.4-.59,5.87-.64,7.54.42h0c2.6,1.47,2.26,1.49-2.65,2.69Z" style="fill:#2fc0a2"/><path d="M90.55,330.55,88,332c-.7.43-.83,1-.45,1.4a2.7,2.7,0,0,0,1.35.75,7.2,7.2,0,0,0,5.06-.38L97.45,332c.88-.46,1.1-1,.68-1.51a.67.67,0,0,0-.17-.16c-.7-.37-3.94-.38-5.84-.16A3.76,3.76,0,0,0,90.55,330.55Z" style="fill:#2fc0a2"/><path d="M103.18,339c-2.19.09-3.78.92-3.57,1.85h0c.31,1.08,2.25,1.83,4.43,1.74l5.95-.3c2.73-.18,5.51-1.08,5.23-2.35h0c-.17-1.84-.46-1.75-6-1.37Z" style="fill:#2fc0a2"/><path d="M104.59,347.32l-4.18-.47a3.9,3.9,0,0,1-2.43-1,.72.72,0,0,1-.07-.94c.54-.83,2.55-1.29,4.49-1.06l5.43.49a4.26,4.26,0,0,1,2.77,1,.41.41,0,0,1,.1.16c0,.48-2.49,1.35-4.29,1.69A5.27,5.27,0,0,1,104.59,347.32Z" style="fill:#2fc0a2"/></g><g style="mix-blend-mode:multiply"><path d="M221.41,334.6c-5.07.77-7.8,3-6.1,5,1.13,1.35,4.05,1.89,4.05,1.89,1.73.32,2.44,1.17,1.57,1.88a1.8,1.8,0,0,0-.33,2.55c1.7,2,7.17,3,12.24,2.28s5.75-3.63,5.75-3.63c.19-.78.34-1.43.33-1.44s1-.52,2.31-1.13c0,0,3-1.45,1.73-3s-5.84-1.88-5.84-1.88c-1.89-.13-3.45-.24-3.46-.25l-2.4-1A20.57,20.57,0,0,0,221.41,334.6Z" style="fill:#2fc0a2"/><path d="M247.48,337.39a7.81,7.81,0,0,1-5.51-.48h0c-1.36-.92-1-2,.85-2.54l5.06-1.37c2.39-.59,5.87-.64,7.53.42h0c2.6,1.47,2.26,1.49-2.65,2.69Z" style="fill:#2fc0a2"/><path d="M236.19,330.55,233.66,332c-.7.43-.83,1-.45,1.4a2.71,2.71,0,0,0,1.35.75,7.21,7.21,0,0,0,5.06-.38l3.47-1.84c.88-.46,1.1-1,.68-1.51a.69.69,0,0,0-.17-.16c-.7-.37-3.94-.38-5.84-.16A3.76,3.76,0,0,0,236.19,330.55Z" style="fill:#2fc0a2"/><path d="M248.82,339c-2.19.09-3.78.92-3.57,1.85h0c.31,1.08,2.25,1.83,4.43,1.74l5.95-.3c2.73-.18,5.51-1.08,5.22-2.35h0c-.17-1.84-.46-1.75-6-1.37Z" style="fill:#2fc0a2"/><path d="M250.23,347.32l-4.18-.47a3.91,3.91,0,0,1-2.43-1,.72.72,0,0,1-.07-.94c.54-.83,2.55-1.29,4.49-1.06l5.43.49a4.26,4.26,0,0,1,2.77,1,.42.42,0,0,1,.1.16c0,.48-2.49,1.35-4.29,1.69A5.26,5.26,0,0,1,250.23,347.32Z" style="fill:#2fc0a2"/></g><path d="M390.74,217.74s-36-3.47-41.57-27S347.78,68.79,290.28,64.63s-36.72,29.79-18.71,27,35.07-22.86,50.1,56.12,17.8,75.51,62.83,88S390.74,217.74,390.74,217.74Z" style="fill:#d1d2d4"/><path d="M331.29,91.79c7.33,7.89,10.53,18.88,11.72,30.26a115.24,115.24,0,0,1,3.55,22.6c.38,6.31,1,16.63-3.09,21.85-.18.22-.26-1.47-.23-1.63a113.34,113.34,0,0,0,.39-30.16c0,5.49-.3,10.85-.65,15.74-.07.94-.61,2-.73.43-1.5-20.35-1.69-38.18-11.14-56.89A4.75,4.75,0,0,1,331.29,91.79Z" style="fill:#d1d2d4"/><path d="M311.67,67.26c13.28,7.45,17.77,21.17,20.3,35,.24,1.32-.8,9.14-1.14,8.6-1.19-1.87-1.18-8.18.24-9.94.36-.44-3.35-8.77-3.45-9A53.57,53.57,0,0,0,323,84a157.57,157.57,0,0,0-11.45-14.46C311.28,69.25,311.62,67.23,311.67,67.26Z" style="fill:#d1d2d4"/><path d="M309.23,116.2c11.43,7.05,16.63,22.5,16.54,35.39,0,.68-.38,2.48-.52.8-1.15-13.11-9.6-23.09-16.13-33.94A7,7,0,0,1,309.23,116.2Z" style="fill:#d1d2d4"/><path d="M316.62,143.92c7.53,7.16,11.82,19.2,14.8,28.9.21.7-.23,3.77-.43,3.16-3.62-10.61-10.06-19.6-14.54-29.78A5,5,0,0,1,316.62,143.92Z" style="fill:#d1d2d4"/><path d="M336.12,205.16c9.78,4.25,14.91,17.25,26.91,17.47.31,0,.37,2.89-.07,3-6.14,1.31-10-.77-14.7-4.67A70.07,70.07,0,0,1,336,207.19,5,5,0,0,1,336.12,205.16Z" style="fill:#d1d2d4"/><path d="M289.17,64.57a48.61,48.61,0,0,0-1.57,23c-5.23.79-10.59,3.19-16,4C253.69,94.4,233.1,61,289.17,64.57Z" style="fill:#7e7e7e"/><path d="M366.9,293.63c0,.7.29.73.34,0a145.38,145.38,0,0,1,3.41-24.33c-.92,7.46-.67,15.28-.47,21.84,0,.85.28.37.3-.18,0-1.16.17-2.28.24-3.43.07,1.07.13,2.14.29,3.17.11.7.3-.61.3-.77a64.79,64.79,0,0,1,.53-8.93c.23,21.36,2,42.93,2.73,54.43,1.64,25.36,43.48,31.95,59,10.21s-20.09-29.31-20.09-29.31-6.92-2.63,3.29-19.43c9.2-15.14,43.54,9.85,50.23,14.92-.34,1.35-.62,2.7-.84,4.07-2.37,7.71-1.52,18.23.26,24.08.05.17.11.07.17-.14a3.51,3.51,0,0,0,.18-1,1.18,1.18,0,0,1,0-.13,1.48,1.48,0,0,0,0-.15c0-.48,0-.93-.07-1.41-.07-1.74-.14-3.47-.2-5.2s.06-3.49.21-5.2c0,.34,0,.69,0,1,.06,5.16-.16,14.55,4.51,18,.57,6.07,1.12,12,1.58,16.7,1.64,17.12,47.09,33.6,58.62,6.92s-22.4-31-22.4-31c-4.61-36.56,4.61-44.13,15.48-43.15s1.64,21.41,7.57,39.2,40.51,14.49,50.72-4.28-14.49-24.7-21.41-30.3c-2.61-2.11-2.78-16.11-2-32.73,1,1.32,2.08,2.63,3.14,4,.24.29.77-4.71.54-5.59-1-3.79-2-7.56-2.92-11.35.08-1.18.16-2.36.25-3.54a29.84,29.84,0,0,0,4.74,8.42,3.9,3.9,0,0,0,.12-1.27c-2.19-6.57-3.09-13.18-3.85-19.85,1.55-18,3.25-32.9,3.25-32.9s-82.67-21.41-86.13-12.18a103,103,0,0,1-7.29,15.07c-3.12-2.18-7-3.69-10.52-5.06-3.19-1.26-6.34-2.38-9.62-3.38.06,0-.28,1.85,0,2.06a55.11,55.11,0,0,0,5.09,4.23c-2-.42-4-.89-6-1.45-4.82-3.25-12-8-15.3-7.34-.25,0-.41,3.59-.09,3.77l2,1.14c-6.58-2.14-13.12-4.44-19.79-6.35,0,.26,0,.51,0,.77-.18,1.64-.84,5.47-.14,5.88l.75.48a43.78,43.78,0,0,0-20.2.14,5.5,5.5,0,0,0,0,1.91,87.67,87.67,0,0,0,10.2,1.89c-11.88,3.18-17.28,9.73-25.26,16.21-5.67,4.61-8.45,17.18-9.62,32.55C366.34,265.86,366.29,283.18,366.9,293.63ZM468.59,318c.49,5.33,1.28,14,2.11,22.89A54.29,54.29,0,0,1,468.59,318Z" style="fill:#d1d2d4"/><path d="M559.65,208.94a54,54,0,0,1-8.82,3.14l-2,.1c-7.34-.17-14.57-.78-21.86-1.62q-5.42-.66-10.84-1.2l-1.12-.18c-5.61-1-11.24-2-16.79-3.26q-11.49-2.68-22.81-6c1.05-2.19,2.11-4.59,3-7.07,3.46-9.22,86.13,12.18,86.13,12.18s-.1.86-.26,2.35A43,43,0,0,0,559.65,208.94Z" style="fill:#a0a2a2"/><path d="M560.35,250.61c-.09,1.18-.17,2.36-.25,3.54.92,3.79,2,7.56,2.92,11.35.23.88-.31,5.88-.54,5.59-1.06-1.32-2.11-2.64-3.14-4-.74,15.36-.64,28.47,1.44,32l-.4,0c-1.32-2.89-3-6.51-3-6a199.85,199.85,0,0,1-7-30.5c.68,3-.77-14-.74-16,0-3.65.11-7.31.32-11,.49-.62,2.91-13.36,4-16.67q1.37-4.37,2.91-8.7c.54-1.18,1.1-2.37,1.55-3.25a42.68,42.68,0,0,0,6.1-1.09c-.41,3.65-1.83,16.62-3.13,31.85.76,6.66,1.66,13.28,3.85,19.85a3.9,3.9,0,0,1-.12,1.27A29.84,29.84,0,0,1,560.35,250.61Z" style="fill:#a0a2a2"/><path d="M470.25,207.53c-7.35.66-14.7,1.13-22.06,1.53-20,1.1-39.67,2.49-58.27,7.1,4.75-4,9.74-7.5,17.48-9.57a87.67,87.67,0,0,1-10.2-1.89,5.5,5.5,0,0,1,0-1.91,43.78,43.78,0,0,1,20.2-.14l-.75-.48c-.7-.41,0-4.24.14-5.88,0-.26,0-.51,0-.77,6.67,1.91,13.21,4.21,19.79,6.35l-2-1.14c-.32-.18-.16-3.72.09-3.77,3.33-.65,10.49,4.09,15.3,7.34,2,.55,4,1,6,1.45a55.11,55.11,0,0,1-5.09-4.23c-.24-.21.11-2,0-2.06,3.28,1,6.43,2.13,9.62,3.38a55.32,55.32,0,0,1,9.84,4.64Z" style="fill:#a0a2a2"/><path d="M432.95,108.79S389.36,41.25,409.56,14c0,0,19-11.69,76,17.35Z" style="fill:#a0a2a2"/><path d="M413,24.26c24.12-7.3,49.54-1.31,68.13,13.58l4.44-6.53c-57.09-29-76-17.35-76-17.35a28.06,28.06,0,0,0-5,13.47A73.1,73.1,0,0,1,413,24.26Z" style="fill:#7e7e7e"/><path d="M431.68,109.17S395,52.61,412.1,29.69c0,0,16-9.84,64.14,14.42Z" style="fill:#ecdcc5"/><path d="M424.47,43.38a73.67,73.67,0,0,1,50.28,2.91l1.49-2.18C428.11,19.86,412.1,29.69,412.1,29.69c-4.11,5.51-5.08,13-4.24,21.1A72.09,72.09,0,0,1,424.47,43.38Z" style="fill:#aa8041;opacity:0.2"/><path d="M630.67,108.59s43.59-67.53,23.39-94.82c0,0-19-11.69-76,17.35Z" style="fill:#a0a2a2"/><path d="M650.58,24.07c-24.12-7.3-49.54-1.31-68.13,13.58L578,31.12c57.09-29,76-17.35,76-17.35a28.06,28.06,0,0,1,5,13.47A73.29,73.29,0,0,0,650.58,24.07Z" style="fill:#7e7e7e"/><path d="M631.94,109S668.6,52.42,651.52,29.5c0,0-16-9.84-64.14,14.42Z" style="fill:#ecdcc5"/><path d="M639.14,43.19a73.67,73.67,0,0,0-50.28,2.91l-1.49-2.18C635.5,19.67,651.52,29.5,651.52,29.5c4.1,5.51,5.08,13,4.24,21.1A72.17,72.17,0,0,0,639.14,43.19Z" style="fill:#aa8041;opacity:0.2"/><path d="M412.59,144c0,.13.06,1.42.18,1a68.38,68.38,0,0,1,3.66-9.51,37.59,37.59,0,0,1,2.45-4.22,66.24,66.24,0,0,0-3.71,11.26,50.19,50.19,0,0,0-1.06,14.67c0-.1.09,1.06.17,1q1.29-1.06,2.46-2.18c-.28,1.31-.71,5.83,0,6.15A8.88,8.88,0,0,0,427,160.77c7.22,12.72,20.17,23.9,40.49,32.33,52,21.57,133.84,18.65,161.61-22.6,2,3.49,4,6.93,6,10.31.06.12.12.12.18,0,3.08-6.51,2.86-12.86,1.39-19.26a129.36,129.36,0,0,1,6.59,11.8,17.59,17.59,0,0,0,.45-2.81,123.1,123.1,0,0,0-1-15.5,26.77,26.77,0,0,0-.92-5.6c-.06-.23-.15-.45-.22-.68a62.93,62.93,0,0,0-2.88-9.53c0-1,0-2,0-3a28,28,0,0,1,2.49,2.45c3,3.42,5.53,7.32,8.74,10.57a5,5,0,0,0,.13-1.91,40.64,40.64,0,0,0-10.44-16.09q-.6-.55-1.27-1.11c-2.21-22.3-14.17-50-39.8-83.72,0,0-19.47-20.82-47.46-28.84a80.92,80.92,0,0,1,9.22-1.19,3.72,3.72,0,0,0,0-1.91c-5.07-2.39-10.1-2.88-14.4-1.17a16.83,16.83,0,0,0,1.27-1.56l.07-.1c.39-.58.71-5.26.07-5.58A15.57,15.57,0,0,0,537,4.91c.17-1.93.14-4.22-.32-4.36-10.31-3.18-20.46,8.05-25.83,16.51-.87.25-1.75.52-2.62.81,2.3-5.59,8.55-9,12.84-13.14.26-.25.39-2.88.07-3C515.74,0,510,7,508.31,11.51a61.88,61.88,0,0,0-1.16,6.72,83,83,0,0,0-23.77,13c-32.08,24.58-58.8,60-63,92.88a4.13,4.13,0,0,0-.78.66,20.42,20.42,0,0,0-3.69,5.63A39.74,39.74,0,0,0,412.59,144Zm229.19,21.82a13.55,13.55,0,0,0,.32-2,15.55,15.55,0,0,0,.07-3.08c.08-.33.2-.63.26-1,.05.51.14,1,.18,1.52C643.06,166.82,642.63,167.21,641.78,165.82ZM417.22,142.63c-.14,1-.24,1.91-.3,2.58-.11,1.06-.27,2.72-.31,4.5-.19.17-.36.34-.55.49-3.1,2.38.33-5.42.78-6.65C417,143.24,417.1,142.94,417.22,142.63Z" style="fill:#d1d2d4"/><path d="M637,163.3a28.08,28.08,0,0,1-.83,15.3C636.68,173.52,637,168.42,637,163.3Z" style="fill:#a0a2a2"/><path d="M558.86,153.33c-5.93,14.33-27.66,13.28-30.66-2.48-.22-1.17,1.57-1.67,1.79-.49,2.61,13.76,21.77,15.3,27.07,2.47.45-1.09,2.25-.62,1.79.49Z" style="fill:#7e7e7e"/><path d="M500.24,152.83c5.3,12.83,24.46,11.28,27.08-2.47.22-1.18,2-.68,1.79.49-3,15.76-24.74,16.81-30.66,2.48-.46-1.11,1.34-1.59,1.79-.49Z" style="fill:#7e7e7e"/><path d="M542.2,145.38s-10.28-13-25,0C517.17,145.38,527,164.15,542.2,145.38Z" style="fill:#e6ac9e"/><path d="M513.38,352.39c-.09,0-.08-.57,0-.59,13.34-3.32,12.75,22.93,4.9,27.9-.08,0-.08-.5,0-.59,3.77-5.36,6-11.23,4.92-18C522.22,355.32,518.39,353.81,513.38,352.39Z" style="fill:#a0a2a2"/><path d="M497.47,379.88c2.89-2.11,5.41-3.77,7.4-6.85,4.27-6.65,2.3-12.74-2.92-17.43-.05-.05,0-.5,0-.49,10.8,2.16,5.19,25.61-4.5,25.45C497.36,380.56,497.39,379.94,497.47,379.88Z" style="fill:#a0a2a2"/><path d="M416.78,327.15c-.1,0-.09-.64,0-.65,11-1,12.89,27.33.8,27.1-.09,0-.09-.54,0-.57C429.37,349,426.67,331.55,416.78,327.15Z" style="fill:#a0a2a2"/><path d="M398.43,354.05c5.56-3.9,9-7.08,7.72-15.07a17,17,0,0,0-6.92-10.87c-.18-.13,0-1,.05-1,5.19,2.72,7.71,8.86,7.59,14.56-.11,5-2.21,13-8.43,13.34C398.27,355.05,398.3,354.14,398.43,354.05Z" style="fill:#a0a2a2"/><path d="M563.5,314.93c-.1,0-.07-.62,0-.67,5.22-2.91,7.32,12.15,7.51,14.81.3,4.29-.25,15.69-7.12,14.11-.15,0-.12-.87,0-.92,7-2.42,7.38-9.39,6.33-16C569.6,322,568.09,316.32,563.5,314.93Z" style="fill:#a0a2a2"/><path d="M546.79,316.23c-.14-.11,0-.83,0-.82,5.28,2.46,7.79,8.27,7.62,13.91-.14,4.78-1.59,12.45-6.82,14.17-.07,0-.06-.63,0-.71,2.19-2.72,4.25-5,5.53-8.3C556,326.92,552.31,320.53,546.79,316.23Z" style="fill:#a0a2a2"/><ellipse cx="574.97" cy="115.13" rx="8.57" ry="15.47" transform="translate(-1.6 221.97) rotate(-21.82)" style="fill:#353634"/><circle cx="579.31" cy="105.59" r="4.87" transform="translate(2.29 223.05) rotate(-21.84)" style="fill:#fff"/><ellipse cx="480.42" cy="115.13" rx="15.47" ry="8.57" transform="translate(194.95 518.32) rotate(-68.18)" style="fill:#353634"/><circle cx="476.08" cy="105.59" r="4.87" transform="translate(200.99 508.24) rotate(-68.16)" style="fill:#fff"/><path d="M513.09,278.28c2.74,3.71,5.52,7.15,10.61,5.85,3.93-1,5.8-8.29,7.65-11.22,4.64-7.33,11.15-14.58,11.9-23.62.5-6,0-16-7.82-17.46-4.1-.79-6.39,1.25-8.69,4.51-1,1.41-5.85,7.66-5.76,8.85-.17-2.33-.56-1.31-.82.09a1.68,1.68,0,0,0,0-.33c-2-8.2-23.18-30.36-25.46-11.9C492.71,248.85,504.15,266.15,513.09,278.28Z" style="fill:#fff"/><path d="M447.79,140.92c10.6,2.44,21,5.42,31.8,6.91,0,0,0,.34,0,.34a141,141,0,0,1-31.8-6.72C447.7,141.43,447.8,140.92,447.79,140.92Z" style="fill:#fff"/><path d="M440.4,160.77c12.74-3.72,26.2-3.77,39.18-6.31,0,0,.07.68,0,.71-12.67,3.84-26.2,3.75-39.18,6.18C440.4,161.34,440.33,160.79,440.4,160.77Z" style="fill:#fff"/><path d="M454.6,173.29c7.81-4.21,16.33-7.17,24.42-10.79,0,0,.08.47,0,.52a142.48,142.48,0,0,1-24.41,10.79S454.52,173.33,454.6,173.29Z" style="fill:#fff"/><path d="M572.13,159.2c13.38,2.62,26,8.42,38,14.69.07,0,0,.45,0,.46-12.72-4.89-24.92-11-38-14.84C572.09,159.5,572.13,159.2,572.13,159.2Z" style="fill:#fff"/><path d="M577.24,154.76c7.89-.28,16,.47,23.85,1a1,1,0,0,1,0,.42,105.9,105.9,0,0,1-23.84-1.3S577.23,154.76,577.24,154.76Z" style="fill:#fff"/><path d="M573.27,148.36c7.89-3,15.34-6.94,23.85-7.89,0,0,0,.3,0,.31-8.28,1.66-15.93,5.21-23.85,8C573.28,148.77,573.2,148.38,573.27,148.36Z" style="fill:#fff"/><ellipse cx="480.42" cy="73.25" rx="11.47" ry="4.81" transform="translate(-3.72 115.45) rotate(-13.65)" style="fill:#fff"/><ellipse cx="584.18" cy="73.25" rx="4.81" ry="11.47" transform="translate(375.13 623.64) rotate(-76.35)" style="fill:#fff"/></g></g></g></svg>