<svg xmlns="http://www.w3.org/2000/svg" viewBox="0 0 547.26 258.61"><title>accesorios-flat</title><g style="isolation:isolate"><g id="Capa_2" data-name="Capa 2"><g id="Capa_1-2" data-name="Capa 1"><rect x="192.9" y="6.7" width="351.74" height="240.5" rx="12" ry="12" style="fill:#42b1c9"/><path d="M532.64,247.2a13.17,13.17,0,1,1,1.42-.09c.39-.07.79-.1,1.18-.2-.42.1-.86.14-1.29.22S533.07,247.18,532.64,247.2Z" style="fill:#5abbd0"/><path d="M542.36,242.19a8.83,8.83,0,0,0,1.42-2.62,11.3,11.3,0,0,1-1,2,7,7,0,0,1-.57.83,8.93,8.93,0,0,1-.85,1,12.39,12.39,0,0,1-5.19,3.26,12.94,12.94,0,0,0,3.29-1.62,11.83,11.83,0,0,0,3-3C542.81,241.59,542.45,242.08,542.36,242.19Z" style="fill:#5abbd0"/><path d="M545.29,77.63l-.06,1.06C545.26,78.41,545.28,78,545.29,77.63Z" style="fill:#5abbd0"/><path d="M508.14,4.59c.78,0,1.1-.12,1.14-.22C508.56,4.44,508,4.49,508.14,4.59Z" style="fill:#5abbd0"/><path d="M490.68,3l1,.1A1.91,1.91,0,0,0,490.68,3Z" style="fill:#5abbd0"/><path d="M545.29,77.63l.17-2.73C545.3,74.71,545.33,76.3,545.29,77.63Z" style="fill:#5abbd0"/><path d="M544.59,219.92v1.48c0-.47,0-.92,0-1.39Z" style="fill:#5abbd0"/><path d="M545.21,122.71v.83c0,.24.06.47.1.69Z" style="fill:#5abbd0"/><path d="M545,157.31a4.86,4.86,0,0,0-.16-1.35c0,.44.07,1,.08,1.71C544.91,157.67,544.93,157.57,545,157.31Z" style="fill:#5abbd0"/><path d="M544.66,212.17v1C544.66,212.89,544.66,212.46,544.66,212.17Z" style="fill:#5abbd0"/><path d="M545.51,98a.83.83,0,0,0,.11-.32S545.55,97.76,545.51,98Z" style="fill:#5abbd0"/><path d="M492.54,247.11s0,0,0,0C492.74,247.11,492.8,247.11,492.54,247.11Z" style="fill:#5abbd0"/><path d="M532.64,247.2h0Z" style="fill:#5abbd0"/><path d="M458.73.87l.14,0C459.72.78,459.24.8,458.73.87Z" style="fill:#5abbd0"/><path d="M184.85,39.36c1.73-3.32,2.25,5.41,4.17.41C188.25,40.24,186,35.22,184.85,39.36Z" style="fill:#5abbd0"/><path d="M544.59,219c0-.47,0-.94,0-1.42C544.59,218.25,544.59,218.69,544.59,219Z" style="fill:#5abbd0"/><path d="M189,39.77h0l.18-.52Z" style="fill:#5abbd0"/><path d="M385.11,0a2.21,2.21,0,0,0,.75.7C385.84.55,385.67.35,385.11,0Z" style="fill:#5abbd0"/><path d="M440,3l-1.36-.2A7.46,7.46,0,0,0,440,3Z" style="fill:#5abbd0"/><path d="M356.63,1.89a3.64,3.64,0,0,0-2-.16,1.26,1.26,0,0,0,.31.21A1.86,1.86,0,0,1,356.63,1.89Z" style="fill:#5abbd0"/><path d="M327,1.61a5.28,5.28,0,0,0,.55.36l.94-.09Z" style="fill:#5abbd0"/><path d="M402.46,246.31a12.75,12.75,0,0,1,1.37.21C403.37,246.36,407.72,246.36,402.46,246.31Z" style="fill:#5abbd0"/><path d="M544.6,219.9V219c0,.34,0,.67,0,1C544.6,220.09,544.6,220.11,544.6,219.9Z" style="fill:#5abbd0"/><path d="M355.43,15.18,350.72,15A40,40,0,0,0,355.43,15.18Z" style="fill:#5abbd0"/><path d="M198.38,237.3l.33.53A.7.7,0,0,0,198.38,237.3Z" style="fill:#5abbd0"/><path d="M336.74,15.51a7.42,7.42,0,0,0-2.65-1.17,1.86,1.86,0,0,0-.55.46Z" style="fill:#5abbd0"/><path d="M403.84,246.51h0Z" style="fill:#5abbd0"/><path d="M434.85,246.52c-4.49-.06-2.11.13-3.06.22-5.36,0-2.48-.15-4.3-.27-3.34,0-5.91.15-8.4.12-.19,0-.67-.06-.1-.09-3.54.14-10.5-.13-14.61.09a3.51,3.51,0,0,1-.54-.07c.67.14.77.28.63.38a33.46,33.46,0,0,1-4.49,0,10.92,10.92,0,0,0,1.91-.12l-2.11.07c-1.9-.29,2.88-.07,2.88-.27-4.11,0-8.9.25-12,.15-.66-.31,7.36,0,3.16-.33l4.87.16c-3.72-.48,3,.07-.46-.44-6.41-.19-7.17,0-13.57-.16-1.44.16.48.28-1,.45-9.09.27-7.16-1-13.84-.63a20.92,20.92,0,0,1-7.16.42l1.62-.46c-6.21-.17-3.54.68-10,.23,1.16-.2,4.88-.1,3.94-.18-4.21-.49-3,.25-6.22.21l-.67-.51c-6.61-.05-13.89.22-21.21.23.41-.18,1.66-.34-.05-.56-9.23.14-19.71-.44-28.62-1.16l-3.4.61c-.79,0-1.47-.35-.61-.47-3.47-.35-.18.44-1.85.69-2,0-2.61-.47-1.36-.66-6.13.43-17.45,1.1-23.9.07l1.26-.23c-5-.48-5.67,1.68-10.33.79l.89-.15c-10.91-.62-23,.15-31.28-1.64-1.58,1.56-10.8-1-11.5,1.31-6.23-1.26-4.44-1.65-13.22-2.68a4.53,4.53,0,0,0-.83,0l-.38.06-.2.07c-.27.12-.54.31-.84.46a2.79,2.79,0,0,1-2.33.33l.53-1.22a6.9,6.9,0,0,1-2.75-.3,7.19,7.19,0,0,1,.42-2.05,7.23,7.23,0,0,1-1-1.15c.14.58.07,1.49-.31,1.63a4,4,0,0,1-1-2,4.61,4.61,0,0,1,.17-2.16l0-.12,0-.19.09-.37.19-.69c.13-.44.26-.83.39-1.15.26-.65.51-1.05.69-1.08l-1-10c.59.22.76,1.9,1.11,3.23-1.39-5.36,1.59-1,.32-5.88-.36.66-.89-.36-1.19-.47,1-2.45,1.11-8,.8-12.14l1.06.79c.46-7.45-.15-15.7,0-24.05-.61,3-2.59,2.31-2.75-.14l1.8-1c-1.08-1.58-.71,2.56-2-.69.24-3.12,2.09-2.1,2.63-.31l-.55-3.8c.55-.22.82.67,1.5.9-1.11-1.56,2-6.55.05-8.8l.56-.21c.2-8.35-.37-12.14-.35-18.95-1.68-.13-1.26-2.79-2.6-4.82.6-5,2-10.55,2-16.58-.82-4.23-1.47-1.24-2.5-3.14,1.61-.31,1.53-6.33,2.65-3.21a120.53,120.53,0,0,0-1.45-18.38c-.69,1-1,2.11-1.56,1.53-.26-1.66.73-3.78,1.53-3.54l.17.44c-1.21-5.13,0-11.06,1.22-16.72s2.23-11.06.46-15.15l.17.46-1.83-8.48c.33-3.9,1.3,2.34,2.4-.55-2.87-9.14.51-14.45-1.41-22,2.62-2.91,2.56-8.09,2.25-13.51l-.24-4.09-.08-2,0-1v-.74a.38.38,0,0,1,0-.07c0-.59.57-1.06,1.42-.82-.36-.22-.71-.42-1.08-.61-.37-.54-.09-.63.28-.46s.83.5,1,.52c-.6-.75-1.15-.48-1.35-1.2a2.88,2.88,0,0,1,.7-.78,3.33,3.33,0,0,1,.94-.47,3.7,3.7,0,0,1,.53-.1l.27,0h.75l3.3,0c4.42.11,8.88.42,13.35.8,8.94.78,17.94,1.83,26.77,2.35,6.46.28,3.67-6.38,11.81-3.49l-2.31,2.28c13-2.78,26.66-.12,39.42-2.5-.76.51-.78,1.17-2,1.18,2.7,1.56,10,0,10-1.32,2,.13.46,1.16,1.68,1.8,2.7.88,6.79-2.08,8.22-.55.24.25-.76.51-1.25.64,1.76-.78,8.21.07,6.52-1.68,4.79.79,9.16-.89,13,.09,2.49-2,8.2.81,9-1.91-.34,2.81,8.4,2.09,11.43.78-1,.84,2.63.81,1.45,2,3.46-.1,6.62-.66,6-2,3.18,1.55,6.38.83,9.23.27s5.36-1,7.15.94c10.27-1.59,19.77-2.62,29-3.31-.33,2.36-10.21.4-9.81,2.93,8.76-1.22,13.81-3.26,22.5-2.84,2.25.27-1.28,1-2,1.4,8.75-1.08,16.92-.17,24.71-1.47,0,.19-.86.42-1.66.59,1.54-.1,3.57.22,3.4-.7l-1.5.28c-2.45-1.34,6.1-2.9,6.37-3.58-2.61,2.64,7.69.58,3.55,3.87,1-.19,2.28-.64,2-1.22,1.5.15,2,.48.45,1.19,5.5-.6,3.54-1.48,8.53-1.53,0,.41-1,.59-1.54,1.09a21.11,21.11,0,0,1,9.26-1.4c-.25.24.24.55-1,.56,7.23-.28,12.32-2.17,20.25-1.54-2.34,1.59,2.7.48,3.12,1.8l4.26-.48-1.71-.6c3.74,0,7-1,10.25-.63L504,9.31,511,9l-4-.41c3.78-.67-.41-1.55,4.57-1.23-1,.12,3.74,0,5.68.67h0a19.79,19.79,0,0,1,6.51-.5c.72.35-.58,1.23-.11,1.46.91-.48,3.1-.56,5.35-.66,1.12,0,2.26-.09,3.27-.19.52-.05.88-.07,1.27-.13a7.53,7.53,0,0,0,1-.15c-.74.11-.81.64-.62.78a8.06,8.06,0,0,1,1.45-.43c1.45.64,1.55.89,1.18,1.16a6.33,6.33,0,0,0,1.6.68c.19,0,.14-.2.1-.38s-.07-.33.2-.23a2.17,2.17,0,0,1,.64.41c.15.12.33.26.52.44l.64.68c-.37-.25-.27-.06-1-.55a12,12,0,0,1,4.06,6.76,5.67,5.67,0,0,1,.14,1c0,.33.07.65.07,1l.06,2.17c0,1.44,0,2.87,0,4.3-.84,1.68-.27-5-1-3.06.33,8.22,1.21,17,1.09,25l.07-1.48c1,1.1-.44,5.92.06,9.95-.08-1-.53-1.29-.42-1-.08,5.45.37,11.14.66,19.39l-.21-1c-.15,3.21,0,8.45-.07,11.92.19,1,.17,3,.41,1.81a132.41,132.41,0,0,0-.09,15.39c.17,4.95.29,9.75,0,14.49,0-1.13-.13-2.7-.12-1.8l.17,8.08a18.14,18.14,0,0,0,.24-2.76c.11,1,.2,3.3.2,5.31-.12-3.63-.28,0-.36,1.6,0-.26.11.27.16.14-.27,4.22.33.71.15,6.47l-.08-.31c0,2.16.15,4.14.13,6.47-.15,1-.08-2.3-.21-2.44,0,3.27.3,6.45.16,9.4l-.09-4.77c-.16,3.22-.11,3.59-.12,6v-.24l0,5.53,0-1.41c.33,4.09.1,8.33.28,13.83-.16-5.35-.09-.88-.2-1.29,0,1.41,0,3.54-.07,2.94.1,2.6,0,4.35.1,8,0,.16,0,2.78-.06,2.2,0,3.38,0-.8.07-.52.09,5.22,0,12.26.09,19.77l.1,13.67c0,2,0-1.66,0-1.66,0,3.27,0,5.73,0,8.81,0-.62,0,0,0,1l0,4.91,0-2.47,0,8.81c0,.8,0-1.82,0-2.88v5.79a22.9,22.9,0,0,1-.17,4,13.59,13.59,0,0,0,.17-2.16c-.05,1.23,0,.64,0-.28,0-2.9,0-4.16,0-4.35v-10.8l0,1.8,0-4.44c0-.94,0-1.59,0,.55,0-3.1,0-2.74,0-5.41,0-.29,0-.16,0,.11v-3a9.35,9.35,0,0,1,0,1.36c0-5.44,0-8.77,0-10.81v.45c0-7.54,0-.73-.1-6.39l.13-3.81-.06-.74c0-.78,0-2.32,0-2,0-2.9,0,.49-.07-1.19.07-3.75,0-10.33.1-11.17-.06-1.34-.05,3.58-.1-.42.15-1.14,0-4.62.06-8,.09,1.05,0,4.29.12.87-.15-2.06.06-6.66.05-9.55a32,32,0,0,1-.08-3.79c0-2.16,0-4.9,0-7.33.06.31.14-9.11.26-13.62l0,.13c-.23-.87-.17-5.52-.21-8.9.17.13.23.74.29,2.57l0-3.18c-.08-.75-.13-1.74-.15-3.81l.22.8c0-4.23-.21-8.53,0-14-.26-.31-.69,4.33-.87-1.43.14-.21.38-.43.43,1.08,0-.49-.11-1.76-.05-2.76l.23,2.3c.12-2.48-.19-1.3-.16-3.28.2,0,.15-1.47.32-1.18,0,.51-.1,1.73,0,2.49a52.71,52.71,0,0,1,.37-5.83c-.13.19-.29,0-.31-1.64,0-4.23.28-1.45.43-3.92-.15-1,.05-3.73-.31-3.8a5.79,5.79,0,0,1,.29-1.95c-.14-2.19.06-10.24-.39-7.77l0,.56,0-.36v0c-.39-7.18.34-14.92.21-22h.17c-.16-4.25,0-9.47-.43-12.51,0-1.26.37-3,.6-2.43a45.91,45.91,0,0,1,0-8.31c.33,3.27.34-1.13.23,3.35.22-4.23.6-5.18.06-9.72.54,1.54.78-3.18.63-5.19l-.47,3c-.06-2.26,0-4.23.1-6.24l.78,1.08c.07-.57.14-1,.16-1.66a10.8,10.8,0,0,0-.07-1.91,12.13,12.13,0,0,0-1-3.58,13.64,13.64,0,0,0-4.37-5.26A17.45,17.45,0,0,0,536.17,5a14,14,0,0,0-1.47-.35c-.49-.12-1-.19-1.48-.26s-.93-.15-1.34-.24-.83-.2-1.24-.32c-1.14.31,0,.45,1.23.59.31,0,.59.07.89.12a6.19,6.19,0,0,1,.78.18c.38.12.42.25-.17.41L531.79,5c-.5-.05-1-.12-1.47-.2-1-.16-1.9-.35-2.74-.55a31.44,31.44,0,0,0-3.66-.79c-5.45-.69-5.08,1.37-10.79.91.73.39,1.42,1.38-2.84,1.73-4-.15-4.89-1.68-2.38-2,1,0,1.42.11,1.37.24,1.29-.12,3-.26,1.4-.7l-.52.37c-2-.42-7.45-.49-6.16-1.12-3,.32-1.29.64.94.88-5.11-.68-8-.16-13.23-.66.84.25,1.61.76.77.75-7.71-.66-3.39.77-8.62.91-3-.72,1.06-1.61-4.19-1.12-3.21-.53-.68-1.23.6-1.57-4.79.78-8.95-.8-11.69-1.06l2.52-.31a24.66,24.66,0,0,1-4,.1l1.44,1c-1.48-.2-2.74-.24-2.71-.65-1.53.61,1.17,1.64-1.86,2.47-2-.54-6,.47-6.7-.89,6.21.57-.69-1.37,4.57-1.46a14,14,0,0,1-3.74-.12c-.22-.16.21-.27.62-.34C452.79-.5,456,2.33,449.84,2.18c.78-.77-1.43-1.53-2.43-1.38,2.48.08,1.19,1.34-1.09,1.91C442.37,2,442,3.11,440,3l2.36.33c-.8.8-2.77.67-5.53.9-.24-.65,2.5-.41,1.52-.71-3.06,1.44-6.91-1.62-11.17-.69-2-.62-.19-1.62-1.93-2.06-4.78,1-5.17-1.32-10.2-.49,1.45,1.24,1.7.94-1.84,2.07l8.25-.71-5.3,1.66c2.49,0,5.26-.68,6.75-.46-2.52.93-2.26.65-1.07,1.64-3.41-1.82-6.76,1-10.7-.26l.12-3c-5.92-1.49-10.53,1.4-18.22.51l2.47.59c-1,1.26-4.75.12-7.24.61.23-1.09-1.33-1.5-2.39-2.21.13.82-5.63-.18-6.33,2L376.1,1.24C369.89.53,369,4.4,363,4c1.8-1.25-.92-2.11,3.08-3-2,0-3.79-.28-3.82.53-1.16-.75-5.53,1.52-7.36.39-.84.51-1.12,1.76-3.35,1.64-.24-.24,0-.59,0-.59,0,.59-3.5.78-1.55,2.12-6.14-3.81-17.16.22-22.51-3.14-4.35.38-9.59.76-13.54.83.25-.38,0-.64.76-.5-5.45-1.23-3.35,3.66-9.55,2.31C302,2.51,308.5,3.5,306.52,2.7c-.86-4.27-7.48.54-11.65-2l1-.25c-3.19-1.5-7.78,1.58-13,1.25,0,0,.25-.39,0-.66C279.36,3.26,272.61,4,267.6,4.61c1.56-1.73,2.28-.91,1.33-2.68-2.25.24.66,2.83-3.83,3.32-1.46-1-4.69-1.79-5.12-3.69l4.23-.09c-2.17-2.45-5.48.06-7.71-.37L256.78,0c-6.48.32-6.57,3-13.54,2.83l.72.82c-3.81,2.7-3.19-1.52-7,.48l-1.15-2.75c-2.51.65-8.8,2.64-13.31,3.16,2.55-2,7.83-3.09,11.09-4.29-2.49,0-8.46.18-9.76,1.55,1-.27,2.27-.94,3.26-.51q-4.58,3.25-12,3.18c.44-2.68-2.79-3-6.59-3.21l-2.9-.15-.75,0-1.05,0c-.7,0-1.38,0-2.05.07-2.69.17-5,.73-6.81.6a25.72,25.72,0,0,0-6.74,8,23.38,23.38,0,0,0-1.9,4.92,21.8,21.8,0,0,0-.48,2.64l-.21,2.21a112.71,112.71,0,0,0-.84,14.37c4.12-3.63.13,3,4.36,2.36.27,2.38.21,3.29-.07,3.5L186.53,47c-1.22,1.71-.94-2.27-1.89-2-.29,5.22-1.78,2.19-2.87,5.64,1.5-.71,2.16,1.81,1.61,4.79l1.91-4.19c2.27,7.29-3.49,6.3-1.22,13.65l-1.33-2.32c.8,3.77.12,13.91,3.44,17.61-.47.67-1.58,1.55-1.89-.11-.37,9,3.63,20.06,1.73,27.06l-1-.68c.3,1.68,1.84,2.93.9,5-.4-.11-1-.68-1,.1.34.89,1.73,4.47,1.19,6.69L185,116.3c-1.11,8.79,2.77,13.49,3.44,20.86-2.71,0-3.47,6.9-3.83,10.35l-.38-.12c-.12,10.24,2.49,17.39,3.57,26.87-2.58,5.88-.78,19.93-2,29.39.38-1.45,1.77.24,2,1.92-.41,2.22,1.64,6.13-.39,5.78l0-.79c-2,1.67-1.3,6.23-1.27,9.79l2.57.59a22.79,22.79,0,0,0-1.24,7.82c0,1.4,0,2.83.12,4.26l.15,2.14a18.23,18.23,0,0,0,.44,2.94,17.52,17.52,0,0,0,2.19,5.19,19.74,19.74,0,0,0,3.2,3.85,65.67,65.67,0,0,0,6.07,4.64,27.24,27.24,0,0,0,5.18.15,29.34,29.34,0,0,0,3.62-.62l-.12,1.18a166.32,166.32,0,0,0,17-.28l-1.57.82c4.34-.08,5.48-3.22,9.49-3.32l1.21,1.51c7.58-.15,15.24.86,22.73-.56-.12.2-.35.59-1.57.68,3.57,0,13.79.49,12.5-1.19.09,1.11,7.82-.08,11.91-.58l-.64.77a25,25,0,0,1,8.39-1.6c1.14.08,1,.56-.52.4,3.81.31,3-.71,7.58-.39l-1.72.46a14.81,14.81,0,0,0,5.76-.75c2.46-.28,7.43.09,8,.63a11,11,0,0,1,5-.68c.31.2-.53.33-1,.4,6.55.29,9.74-.77,14.25-.28.09.17.39.26.76.3-5.2.06-9.4.1-9,.05,0,.53,4.2.52.86,1.31,3.37-.5,9.14-1.39,13.24-1.22a2.72,2.72,0,0,1,.54.15l-.42.06a18.05,18.05,0,0,0,2.59-.12c1.31.05,2.14.09,3.39.07.48.35,4.82.09,6.92.07-.17-.44,2.57-.41,0-.73.33,0-.4.06-1.79.09-.32,0-.69,0-.89.06l.14,0-5.21.11a20.77,20.77,0,0,1,5.7-.25c1.08-.3,2.26-.6,2.93-.74,2.87.6,8.4.83,9.17,1.15,6.4-.33,15.08-.4,19.1-1a8.84,8.84,0,0,1,2.77.24c-1.05.07-2.3.07-2.87.17,3.64-.2,10.78-.18,11.65-.55,4.59.13-2.58.35,3.72.24l-.85.11c6.2.19,11.24-.09,16.44-.28s10.58-.32,17.45-.14c-1,0-1.43,0-1.62-.06,7.83,0,15.91-.05,24-.1s16.07-.07,23.8-.06c4.4,0,4.87,0,7.55-.07l1,0,4.59-.06h32.68c-.57,0,2.1,0-1,0-2.2,0,2.11,0-1.53,0l-4.3,0h-6.3c-2.38,0-8.06,0-7.83,0h-6.4c4,0-8.21,0-7.15-.11-3,0-10.71,0-16,0,.29,0,.87,0,1.33,0-3,0-3.82-.07-5.72-.11-.38.09-5,.08-7.47.15-3.62-.13,2.2-.12,1.06-.23.18.09-6.3,0-5.06.13-2.77-.1-2.39-.06-3.82-.18-.49.17-2.58,0-4.88.1-4-.13-1-.2-5.44-.18C430.94,246.55,434.85,246.52,434.85,246.52ZM330,245.85h0Zm-8.81-.11c1.07,0,2.41.06,3.82.07.31.19,0,.37-.91.35C324.63,246.05,322.56,245.92,321.24,245.75Zm18.63,3.43a4.92,4.92,0,0,1-2.05-.08l2.44-.1.16-.06A1.59,1.59,0,0,1,339.87,249.18Z" style="fill:#5abbd0"/><path d="M342.38,248.54c.2,0,.31,0,.57,0l-.83-.09-.49.15Z" style="fill:#5abbd0"/><path d="M545.21,78.88V78.7a2.91,2.91,0,0,1-.06.39C545.19,79,545.2,79,545.21,78.88Z" style="fill:#5abbd0"/><path d="M202.17,241l-.12.28a2.68,2.68,0,0,0,.49-.06A2.14,2.14,0,0,1,202.17,241Z" style="fill:#5abbd0"/><path d="M544.24,127.39a5,5,0,0,0,0,.64S544.22,127.73,544.24,127.39Z" style="fill:#5abbd0"/><path d="M544.33,148.35l0,3Z" style="fill:#5abbd0"/><path d="M544.37,164.46a2,2,0,0,0,0,.32v0Z" style="fill:#5abbd0"/><path d="M441.07,11.66a4.3,4.3,0,0,0-.62.07C439,12,440,11.89,441.07,11.66Z" style="fill:#5abbd0"/><path d="M517.3,8c-.81.16-1.61.33-2.45.44C516.2,8.5,517.26,8.5,517.3,8Z" style="fill:#5abbd0"/><path d="M355.94,15.2s0,0,0,0h-.53Z" style="fill:#5abbd0"/><path d="M511.3,8.47a13.94,13.94,0,0,0,3.54,0A21.5,21.5,0,0,0,511.3,8.47Z" style="fill:#5abbd0"/><path d="M544.62,234.28v0Z" style="fill:#5abbd0"/><path d="M544.62,235.15l0,.86Z" style="fill:#5abbd0"/><path d="M544.33,237.8a8.78,8.78,0,0,0,.16-.89,5.63,5.63,0,0,0,.09-.9,6.47,6.47,0,0,1-.11,1A7.28,7.28,0,0,1,544.33,237.8Z" style="fill:#5abbd0"/><path d="M544.58,213v0Z" style="fill:#5abbd0"/><path d="M544.56,206.48c0,1.55,0,3.88,0,6v.2C544.57,211.69,544.56,208,544.56,206.48Z" style="fill:#5abbd0"/><path d="M544.76,179.42l0,5.43c0-.95.07-2.2.06.27C544.89,178.28,544.73,186.54,544.76,179.42Z" style="fill:#5abbd0"/><path d="M544.88,162.58c0,2.92.06,0,.08.12C544.94,160.85,544.93,160.4,544.88,162.58Z" style="fill:#5abbd0"/><path d="M545.93,40.89l.51.29C546.4,38.93,546.24,41.16,545.93,40.89Z" style="fill:#5abbd0"/><path d="M542.93,17.78l-.13.94-.18,1.09.58,1C543.12,19.8,543.07,18.63,542.93,17.78Z" style="fill:#5abbd0"/><path d="M537.6,4.46c.39.13.8.22,1.18.38a15.61,15.61,0,0,0-4.59-1.06A15.49,15.49,0,0,1,537.6,4.46Z" style="fill:#5abbd0"/><path d="M332.27.09l.68,2C334.47,1.74,334.78-.47,332.27.09Z" style="fill:#5abbd0"/><path d="M244,1.64c-1-1.09-3.44-1.8-5-.73C241,1.06,243,1.92,244,1.64Z" style="fill:#5abbd0"/><polygon points="186.99 225.36 186.44 223.58 186.94 226.93 186.99 225.36" style="fill:#5abbd0"/><path d="M487.46,223.18a2.94,2.94,0,0,1-3,3.31H361a2.91,2.91,0,0,1-3-3.31l4.12-38a3.81,3.81,0,0,1,3.69-3.3h114a3.78,3.78,0,0,1,3.65,3.3Z" style="fill:#fff"/><path d="M438.06,204.16a4.32,4.32,0,1,0-6.93-3.87H414.4a4.32,4.32,0,1,0-6.92,3.87,4.32,4.32,0,1,0,6.89,4.1h16.81a4.32,4.32,0,1,0,6.89-4.1Z" style="fill:#dfdfdd;mix-blend-mode:multiply"/><path d="M471.3,181.83H374.24c2.13-3.54,5.58-8.12,7.84-8.12,1,0,2.69,1.86,3.73,1.66,1.88-.41,2.08-3.52,3.32-4.56,2.28-1.66,4.57,1.25,6.64.21,1.88-1,.62-2.71,1.45-4s5-2.49,6.44-2.08c1.66.41,2.69,2.27,4.15,3.32,2.69-1.88,0-4.77,1.46-6.86.61-1,8.08-3.32,10.16-3.11,1.24.41,2.49,2.91,4,2.71,1.66-.22.61-1.87,1.85-2.29,2.49-1.25,12.46,1.25,11.62,5.4,2.91.61,6-.83,8.3,1.44,1.66,1.66.42,3.54,1.46,4.58,2.27,2.89,3.93-.63,5.18-1a6.66,6.66,0,0,1,5.81,3.1c.42.83-.41,2.29,0,2.92,1,1,4,.83,5.18.61,3.12-.21,4.37-1.44,6.64,1,1.66,1.66.83,2.89,1.46,4.35Z" style="fill:#cd8f32"/><g style="mix-blend-mode:multiply"><path d="M468.46,181.83H447.32c-.55-.5-1.11-.95-1.63-1.36-1.66-1.25-2.81-.63-4.87-.22a3.48,3.48,0,0,0-2.59,1.58h-10.1a2.43,2.43,0,0,1-.2-.23c-1.13-1.35-1.54-3.1-2.59-4.45-1-1.56-4.12-2.37-4.33-.45.1,2,.81,3.36-.43,4.8a2,2,0,0,1-.45.33H403.38c-.68-1.25-1.3-2.72-2.72-2.72-.83,0-4,2-4.56,2.71l0,0h-19c.05-.93,1.59-1.63,2.07-2.38.77-1.25.55-2.14,2.15-2.69a3.43,3.43,0,0,1,3.25.48c1.46.83,2,.76,3.6.07s1.73-1.38,2.34-2.77c.28-.75.83-1.79,1.81-1.86s2.69,1,3.59,1.31a9.64,9.64,0,0,1,.9.4c1.43.08,2.42-.2,3-2.13.27-1.11,1.18-3.47,2.34-3.89.63-.13,1.81.63,2.49.91,1.59.61,3.32,4.7,5.26,2.69.83-.9.55-2.69,1.18-3.8.36-.61.78-1.21,1.23-1.83-.47-1.33-.83-3.54.15-4.27,1.18-1,3.69-1.56,5.38-1.94,1.56,0,1.59,2.64,1.49,3.85,1.11.15,2.36,1.58,3,2.18a2.18,2.18,0,0,0,3.14.53,8.57,8.57,0,0,1-.71-1.23c-.56-1.25.14-1.25,1-1.93a3.34,3.34,0,0,0,1.23-2h0c1.09-1.63,3.1.53,4.3.93a3.87,3.87,0,0,1,2.57,1.63c.45.84.15,1.13.9,1.43a9.85,9.85,0,0,0,2.42.62c1.58.22,3-.41,4.57-.28s1.38,1.39,1.86,2.77c.48,1.18.44,1.65.94,2.77.08.21.59,1.12.65,1.29a16.4,16.4,0,0,0,4.63-.1c1-.21,1.18-1,2.21-1.39,3.54-1.38,4.12,1.86,4.06,4.81,0,1.27,3.76,1.63,4.94,1.63,1.46,0,3.38-1.11,4.63-.83a4.37,4.37,0,0,1,2.71,3.45C468.39,180.8,468.43,181.32,468.46,181.83Z" style="fill:#f0d8b1"/></g><polygon points="257.56 155.56 250.97 222.28 43.67 222.28 36.81 156.66 257.56 155.56" style="fill:#beac6b"/><rect x="140.25" y="149.25" width="13.18" height="79.63" style="fill:#e2cc7f"/><polygon points="198.29 149.25 198.27 151.44 198.1 164.62 198.06 167.51 197.88 180.69 197.84 183.57 197.67 196.75 197.63 199.63 197.46 212.81 197.41 215.69 197.23 228.87 184.05 228.87 184.23 215.69 184.28 212.81 184.45 199.63 184.49 196.75 184.66 183.57 184.7 180.69 184.88 167.51 184.91 164.62 185.09 151.44 185.12 149.25 198.29 149.25" style="fill:#e2cc7f"/><polygon points="236.48 149.25 236.35 151.44 235.59 164.62 235.43 167.51 234.66 180.69 234.5 183.57 233.73 196.75 233.56 199.63 232.8 212.81 232.63 215.69 231.87 228.87 218.66 228.87 219.42 215.69 219.59 212.81 220.35 199.63 220.52 196.75 221.28 183.57 221.45 180.69 222.21 167.51 222.38 164.62 223.14 151.44 223.27 149.25 236.48 149.25" style="fill:#e2cc7f"/><polygon points="263.87 149.25 263.64 151.44 262.34 164.62 262.06 167.51 260.75 180.69 260.48 183.57 259.16 196.75 258.88 199.63 257.58 212.81 257.3 215.69 255.99 228.87 242.76 228.87 244.06 215.69 244.35 212.81 245.65 199.63 245.93 196.75 247.23 183.57 247.52 180.69 248.82 167.51 249.11 164.62 250.41 151.44 250.62 149.25 263.87 149.25" style="fill:#e2cc7f"/><polygon points="109.63 228.87 96.45 228.87 96.27 215.69 96.22 212.81 96.05 199.63 96.01 196.75 95.84 183.57 95.8 180.69 95.62 167.51 95.58 164.62 95.41 151.44 95.39 149.25 108.56 149.25 108.59 151.44 108.77 164.62 108.8 167.51 108.98 180.69 109.02 183.57 109.19 196.75 109.23 199.63 109.41 212.81 109.45 215.69 109.63 228.87" style="fill:#e2cc7f"/><polygon points="75.02 228.87 61.81 228.87 61.05 215.69 60.88 212.81 60.12 199.63 59.95 196.75 59.19 183.57 59.02 180.69 58.25 167.51 58.09 164.62 57.33 151.44 57.2 149.25 70.41 149.25 70.53 151.44 71.3 164.62 71.47 167.51 72.23 180.69 72.4 183.57 73.16 196.75 73.33 199.63 74.09 212.81 74.26 215.69 75.02 228.87" style="fill:#e2cc7f"/><polygon points="50.92 228.87 37.69 228.87 36.38 215.69 36.1 212.81 34.8 199.63 34.52 196.75 33.21 183.57 32.93 180.69 31.63 167.51 31.34 164.62 30.03 151.44 29.81 149.25 43.06 149.25 43.27 151.44 44.57 164.62 44.86 167.51 46.16 180.69 46.45 183.57 47.75 196.75 48.03 199.63 49.33 212.81 49.62 215.69 50.92 228.87" style="fill:#e2cc7f"/><polygon points="265.24 151.44 263.98 164.62 29.7 164.62 28.44 151.44 265.24 151.44" style="fill:#fee68f"/><polygon points="263.7 167.51 262.44 180.69 31.24 180.69 29.98 167.51 263.7 167.51" style="fill:#fee68f"/><polygon points="262.16 183.57 260.9 196.75 32.78 196.75 31.52 183.57 262.16 183.57" style="fill:#fee68f"/><polygon points="260.62 199.63 259.36 212.81 34.32 212.81 33.06 199.63 260.62 199.63" style="fill:#fee68f"/><polygon points="259.08 215.69 257.82 228.87 35.86 228.87 34.6 215.69 259.08 215.69" style="fill:#fee68f"/><path d="M261.68,203.34a15.94,15.94,0,0,1-3-1.89c-1.58-1.19-3.39-2.68-5.28-4-2.43-1.7-5-3.09-7.26-3.11a4.87,4.87,0,0,0-1.51.21c-4.94,1.1-6.59,9.88-7.69,13.72l-3.75-2.59c-4.14-2.88-8.44-5.88-12.71-8.7-3.75-2.5-7.46-4.84-11-6.83a32,32,0,0,0-8.78-2.74c-1,0-1.83,1.27-3,2a2.61,2.61,0,0,1-2.54.23c-2.95-.66-6.29-4.84-9.21-8.93l-1.3-1.84c-1.44-2.08-2.73-4-3.76-5.16-1.43-1.88-2.92-4-4.46-6.18l-2-2.88c-2-2.89-4.18-5.85-6.46-8.62-1.31-1.61-2.67-3.14-4.08-4.56a31.94,31.94,0,0,0-9.35-6.86,20.33,20.33,0,0,0-13.87-.54c7.55-2.81,22-2.75,29.79-2.75,13.18,0,27.45.55,40.63,0,12.64-.55,25.81-6,38.44-4.94C285.28,140.19,268.27,182.47,261.68,203.34Z" style="fill:#ee6052"/><path d="M153.43,151.44v-2.2H140.25v2.2h-6a8.61,8.61,0,0,1,5.28-6.93l.67-.29a5.18,5.18,0,0,1,.5-.19,20.33,20.33,0,0,1,13.87.54,31.94,31.94,0,0,1,9.35,6.86Z" style="fill:#b94b40"/><path d="M77.07,142.88a12.46,12.46,0,0,0-11.25,6.37,19.59,19.59,0,0,0-1.17,2.2,32.76,32.76,0,0,0-1.81,5.09c-.72,2.58-1.24,5.34-1.72,8.09-.17,1-.33,1.93-.49,2.88-.55,3.25-1.09,6.39-1.85,9.13a23.86,23.86,0,0,1-1.46,4,13,13,0,0,1-1,1.79c-2,3-5.52,5.45-9.19,7.86-2.15,1.42-4.36,2.82-6.33,4.32A19.58,19.58,0,0,0,34.93,201a9,9,0,0,0-.49,1.09c-9.6-15.82-21.09-39.68-12.72-56.92C29,131.13,62.73,136.24,77.07,142.88Z" style="fill:#ee6052"/><path d="M82.59,151.44H70.53l-.12-2.2H65.82a12.46,12.46,0,0,1,11.25-6.37Z" style="fill:#b94b40"/><g style="mix-blend-mode:multiply"><path d="M77.15,151.44c-.67,5.22-4.75,10.41-6.29,15.24-1.44,4.53-2.26,9.27-3.5,14-2.06,7-5.56,13.39-12.56,16.47A74.86,74.86,0,0,0,41.2,205a31.42,31.42,0,0,0-3.29,2.26c-2,1.82-1.86,2.05-4,1.28l-.83-8.75q.68,1.16,1.36,2.27a9,9,0,0,1,.49-1.09,19.57,19.57,0,0,1,5.86-6.32c2-1.49,4.18-2.9,6.33-4.32,3.67-2.4,7.19-4.85,9.19-7.86a13,13,0,0,0,1-1.79,23.86,23.86,0,0,0,1.46-4c.77-2.74,1.3-5.89,1.85-9.13.16-1,.32-1.92.49-2.88.48-2.75,1-5.51,1.72-8.09a32.76,32.76,0,0,1,1.81-5.09,19.59,19.59,0,0,1,1.17-2.2h4.59l.12,2.2Z" style="fill:#d3d4d8"/></g><g style="mix-blend-mode:multiply"><path d="M233.68,206a5.39,5.39,0,0,1-3,.82c-3.09-.21-5.77-3.29-8.24-5.15-4.53-3.5-11.33-7.41-17.3-6.38-5.35,1-10.09,3.5-16.06,1.85-6.18-1.65-8.65-9.27-11.53-14.21a155.22,155.22,0,0,0-15.24-20c-4.19-4.8-15.18-12.24-22-13.62v-.11h13.18v2.2h10.52c1.41,1.43,2.77,3,4.08,4.56,2.27,2.77,4.42,5.72,6.46,8.62l2,2.88c1.54,2.2,3,4.3,4.46,6.18,1,1.19,2.32,3.09,3.76,5.16l1.3,1.84c2.91,4.08,6.26,8.27,9.21,8.93a2.61,2.61,0,0,0,2.54-.23c1.13-.7,1.94-2,3-2a32,32,0,0,1,8.78,2.74c3.53,2,7.25,4.33,11,6.83,4.27,2.82,8.57,5.82,12.71,8.7Z" style="fill:#d3d4d8"/></g><g style="mix-blend-mode:multiply"><path d="M260.34,202.6l-.67,7.08c-3.47-1.52-6.29-4.06-9.39-6.08s-6.22-4-9.55-5.88a6.51,6.51,0,0,1,3.93-3.17,4.9,4.9,0,0,1,1.51-.2c2.28,0,4.83,1.42,7.26,3.11,1.89,1.3,3.7,2.79,5.28,4C259.28,201.88,259.83,202.27,260.34,202.6Z" style="fill:#d3d4d8"/></g><path d="M79.35,211.21H77.26A35.34,35.34,0,0,0,74.79,202l1.8-1a4.51,4.51,0,1,0-4.51-7.81l-1.81,1a35.83,35.83,0,0,0-6.77-6.77l1-1.81a4.51,4.51,0,1,0-7.81-4.51l-1,1.8a35.4,35.4,0,0,0-9.26-2.47V178.3a4.51,4.51,0,1,0-9,0v2.09a35.41,35.41,0,0,0-9.26,2.47l-1-1.8a4.51,4.51,0,0,0-7.81,4.51l1,1.81a35.89,35.89,0,0,0-6.77,6.77l-1.81-1a4.51,4.51,0,1,0-4.51,7.81l1.8,1a35.36,35.36,0,0,0-2.47,9.25H4.51a4.51,4.51,0,0,0,0,9H6.6a35.35,35.35,0,0,0,2.47,9.25l-1.8,1a4.51,4.51,0,0,0,4.51,7.81l1.81-1a35.82,35.82,0,0,0,6.77,6.77l-1,1.81a4.51,4.51,0,0,0,7.81,4.51l1-1.79A35.46,35.46,0,0,0,37.42,251v2.09a4.51,4.51,0,1,0,9,0V251a35.34,35.34,0,0,0,9.26-2.46l1,1.8a4.51,4.51,0,1,0,7.81-4.51l-1-1.81a35.82,35.82,0,0,0,6.77-6.77l1.81,1a4.51,4.51,0,1,0,4.51-7.81l-1.8-1a35.32,35.32,0,0,0,2.46-9.26h2.09a4.51,4.51,0,0,0,0-9Z" style="fill:#946273"/><circle cx="41.93" cy="215.72" r="4.51" style="fill:#754e5b"/><ellipse cx="54.24" cy="215.72" rx="4.16" ry="4.51" style="fill:#754e5b"/><ellipse cx="64.68" cy="215.72" rx="3.53" ry="4.51" style="fill:#754e5b"/><ellipse cx="73.7" cy="215.72" rx="3.21" ry="4.51" style="fill:#754e5b"/><circle cx="41.93" cy="215.72" r="4.51" style="fill:#754e5b"/><ellipse cx="29.62" cy="215.72" rx="4.16" ry="4.51" style="fill:#754e5b"/><ellipse cx="19.18" cy="215.72" rx="3.53" ry="4.51" style="fill:#754e5b"/><ellipse cx="10.08" cy="215.72" rx="3.21" ry="4.51" style="fill:#754e5b"/><circle cx="41.93" cy="215.72" r="4.51" transform="translate(-102.28 49.89) rotate(-30.01)" style="fill:#754e5b"/><ellipse cx="61.63" cy="204.35" rx="3.53" ry="4.51" transform="translate(-93.85 58.13) rotate(-29.98)" style="fill:#754e5b"/><ellipse cx="69.44" cy="199.84" rx="3.21" ry="4.51" transform="translate(-90.6 61.48) rotate(-29.99)" style="fill:#754e5b"/><circle cx="41.93" cy="215.72" r="4.51" transform="translate(-102.28 49.89) rotate(-30.01)" style="fill:#754e5b"/><ellipse cx="22.22" cy="227.1" rx="3.53" ry="4.51" transform="translate(-110.54 41.51) rotate(-29.99)" style="fill:#754e5b"/><ellipse cx="14.35" cy="231.65" rx="3.21" ry="4.51" transform="translate(-113.83 38.16) rotate(-29.98)" style="fill:#754e5b"/><circle cx="41.93" cy="215.72" r="4.51" transform="translate(-165.87 144.2) rotate(-60.01)" style="fill:#754e5b"/><ellipse cx="48.08" cy="205.06" rx="4.16" ry="4.51" transform="matrix(0.5, -0.87, 0.87, 0.5, -153.53, 144.12)" style="fill:#754e5b"/><ellipse cx="53.3" cy="196.02" rx="3.53" ry="4.51" transform="translate(-143.1 144.14) rotate(-59.99)" style="fill:#754e5b"/><ellipse cx="57.81" cy="188.21" rx="3.21" ry="4.51" transform="translate(-134.09 144.19) rotate(-60.01)" style="fill:#754e5b"/><circle cx="41.93" cy="215.72" r="4.51" transform="translate(-165.87 144.2) rotate(-60.01)" style="fill:#754e5b"/><ellipse cx="35.77" cy="226.38" rx="4.16" ry="4.51" transform="matrix(0.5, -0.87, 0.87, 0.5, -178.14, 144.11)" style="fill:#754e5b"/><ellipse cx="30.55" cy="235.42" rx="3.53" ry="4.51" transform="translate(-188.62 144.2) rotate(-60.01)" style="fill:#754e5b"/><ellipse cx="26" cy="243.3" rx="3.21" ry="4.51" transform="translate(-197.72 144.21) rotate(-60.01)" style="fill:#754e5b"/><circle cx="41.93" cy="215.72" r="4.51" style="fill:#754e5b"/><ellipse cx="41.93" cy="192.97" rx="4.51" ry="3.53" style="fill:#754e5b"/><ellipse cx="41.93" cy="183.95" rx="4.51" ry="3.21" style="fill:#754e5b"/><circle cx="41.93" cy="215.72" r="4.51" style="fill:#754e5b"/><ellipse cx="41.93" cy="238.47" rx="4.51" ry="3.53" style="fill:#754e5b"/><path d="M41.93,250.78c2.49,0,4.51-1.44,4.51-3.21s-2-3.21-4.51-3.21-4.51,1.44-4.51,3.21S39.44,250.78,41.93,250.78Z" style="fill:#754e5b"/><circle cx="41.93" cy="215.72" r="4.51" transform="translate(-102.24 49.86) rotate(-30)" style="fill:#754e5b"/><path d="M33.69,201.45a4.18,4.18,0,1,1,4.16,7.21,4.18,4.18,0,1,1-4.16-7.21Z" style="fill:#754e5b"/><ellipse cx="30.55" cy="196.02" rx="4.51" ry="3.53" transform="translate(-93.92 41.54) rotate(-30)" style="fill:#754e5b"/><ellipse cx="26.04" cy="188.21" rx="4.51" ry="3.21" transform="translate(-90.6 38.22) rotate(-29.99)" style="fill:#754e5b"/><circle cx="41.93" cy="215.72" r="4.51" transform="translate(-102.24 49.86) rotate(-30)" style="fill:#754e5b"/><ellipse cx="48.08" cy="226.38" rx="4.51" ry="4.16" transform="translate(-106.78 54.4) rotate(-30.01)" style="fill:#754e5b"/><ellipse cx="53.3" cy="235.42" rx="4.51" ry="3.53" transform="translate(-110.59 58.21) rotate(-30.01)" style="fill:#754e5b"/><ellipse cx="57.85" cy="243.3" rx="4.51" ry="3.21" transform="translate(-113.87 61.49) rotate(-29.99)" style="fill:#754e5b"/><circle cx="41.93" cy="215.72" r="4.51" transform="translate(-165.85 144.15) rotate(-59.99)" style="fill:#754e5b"/><ellipse cx="22.23" cy="204.35" rx="4.51" ry="3.53" transform="translate(-165.89 121.5) rotate(-60.02)" style="fill:#754e5b"/><ellipse cx="14.41" cy="199.84" rx="4.51" ry="3.21" transform="translate(-165.86 112.41) rotate(-60)" style="fill:#754e5b"/><circle cx="41.93" cy="215.72" r="4.51" transform="translate(-165.85 144.15) rotate(-59.99)" style="fill:#754e5b"/><ellipse cx="61.63" cy="227.1" rx="4.51" ry="3.53" transform="translate(-165.87 166.97) rotate(-60.01)" style="fill:#754e5b"/><ellipse cx="69.51" cy="231.65" rx="4.51" ry="3.21" transform="translate(-165.88 176.13) rotate(-60.03)" style="fill:#754e5b"/><path d="M213,230.9a1.44,1.44,0,0,0,.1.2c.18.4.37.77.58,1.15l.19.37c19,34.84,93.38,34.57,101.83-.28,6-24.54-14.12-37-4.31-51.57-3.78-.17-6.34,1.82-9.88,2.83-3.15,1-8.27.24-9.49-4.13-1.4-4.89,1.5-11.12,10.71-9,2.62,1.39,4-1.57,5.94-2.63,2.79-1.4,3.15-.35,4.89,1.57a8.62,8.62,0,0,0,1,.94C313.67,156,296.72,151.06,286,157c-8.75,4.86-10.94,15.26-8.14,23.3,2.57,7.37,7.5,13.86,7.48,21.9a18.34,18.34,0,0,1-.13,2.21c-1.39,10.83-12.57,15.38-22.35,15.74-7.38.25-21.15-3.3-29.16-13.52h0a28.68,28.68,0,0,1-5.8-13.45C211.64,197.37,206.38,216.91,213,230.9Z" style="fill:#fcbc13"/><path d="M233.75,206.62c8,10.21,21.78,13.77,29.16,13.52,9.79-.36,21-4.91,22.35-15.74a18.34,18.34,0,0,0,.13-2.21,6.25,6.25,0,0,0-.65-.41c-5.24-3-12.58.36-17.64,2.11C257.6,207.39,243,212.86,233.75,206.62Z" style="fill:#eaaf11"/><path d="M292,179.46c1.23,4.37,6.35,5.18,9.49,4.13,3.53-1,6.1-3,9.88-2.83l.43,0c3,.35,6.12,1.22,9.26,1.91a17.76,17.76,0,0,0,6.06.29c3.66-.7,1.8-2,1.62-4.43-.18-2.1,3-3.21,3-5-.18-2.27-3.67-1.4-5.42-1.22-4.26.16-8.38.61-11.71-2a8.62,8.62,0,0,1-1-.94c-1.75-1.92-2.1-3-4.89-1.57-1.92,1.05-3.32,4-5.94,2.63C293.5,168.34,290.59,174.57,292,179.46Z" style="fill:#f8600f"/><g style="mix-blend-mode:multiply"><path d="M304.87,178.66c6.53,0,15.9.89,17.17-.62,1.43-1.64-9,.46-14.21-1.28-1.52-.58-11-3.86-11.8-.24C295.33,179.2,303.12,178.67,304.87,178.66Z" style="fill:#e1c8c2"/></g><circle cx="299.73" cy="165.72" r="2.27" style="fill:#333"/><path d="M221.25,234.85c12.57,18.65,44.48,24.23,66.07,16.85a12.14,12.14,0,0,0,2.85-6.3c.9-8.79-6.68-13.64-14.56-14.84s-15.16,1.22-22.74,2.74c-7,1.52-14.25,3.65-21.52,3.66A20.12,20.12,0,0,1,221.25,234.85Z" style="fill:#eaaf11"/></g></g></g></svg>