<?xml version="1.0" encoding="utf-8"?>
<!-- Generator: Adobe Illustrator 21.0.0, SVG Export Plug-In . SVG Version: 6.00 Build 0)  -->
<svg version="1.2" baseProfile="tiny" id="Capa_1" xmlns="http://www.w3.org/2000/svg" xmlns:xlink="http://www.w3.org/1999/xlink"
	 x="0px" y="0px" viewBox="0 0 40.3 43" xml:space="preserve">
<title>ico-pata-gato_1</title>
<ellipse fill="#FFC111" cx="21.1" cy="36.8" rx="2.5" ry="1.8"/>
<path fill="#FFC111" d="M39.5,15.7c0-2.1-2.5-2.7-2.5-4.7c0-2.4,4.3-2.9,1.5-6.2c-1.7-2.1-5.4-2.4-7.7-0.7c-2.4,1.9,0.7,5-2.1,5.7
	c-1.8-2.4-3.6-1.7-7.3-1.7c-3.7,0-5.5-0.7-7.3,1.7c-2.7-0.7,0.3-9.3-7.7-6.6c-5.8,2-0.6,5.5-0.6,8.1c0,2.7-5.6,5.9,0.6,8.1
	c7.9,2.8,5.1-5.9,7.7-6.6c1.8,2.4,3.6,1.7,7.3,1.7c3.7,0,5.5,0.7,7.3-1.7c2.8,0.8-0.5,4.3,3,6.2C34.9,20.8,39.5,19,39.5,15.7z"/>
<path fill="#FFC111" d="M33.8,32.2c-5.5,0.9-17.3,2-22.3-0.3c-3.7-1.7-3.1-1-3.1-4.6c7.9,2.7,21.9,2.7,29.9,0
	C38.1,30.7,38.8,31.4,33.8,32.2z"/>
<path fill="#FFC111" d="M16.1,22.7c4.3-1,15.1-2.5,18.6,1.2C31.6,27.3,16,27.3,13,24C13.6,23.3,15.4,22.9,16.1,22.7z"/>
<path id="XMLID_1136_" d="M39.5,16.6c0,6.4-12.8,6.6-13.1,0.2H14.1c-0.2,4-6.2,6.3-10.4,3.9C2.1,19.8,1,18.2,1,16.6
	c0-1.6,2.4-3,2.4-4c0-1-2.4-2.5-2.4-4c0-1.6,1-3.2,2.7-4.1c4.1-2.4,10.2-0.1,10.4,3.9h12.4c0.2-5.1,9.3-6.6,12.3-2.1
	c1.8,2.7-0.8,3.5-1,5.7C37.6,13.4,39.5,14.6,39.5,16.6z M37.9,16.6c0-1.8-2.3-2.5-2.4-4c-0.2-1.8,2.8-2.4,2.2-4.8
	c-1.4-5.7-12.9-2.3-8.9,2.7l-1.4,0.7c-0.4-0.5-0.7-1-0.8-1.6H13.9c-0.2,0.6-0.4,1.1-0.8,1.6l-1.4-0.7C14.5,7,9,3.2,4.8,5.4
	C-0.1,8,5,10.1,5,12.6c0,2.3-4.5,4.1-1,6.7c4,3,10.7-0.8,7.7-4.7l1.4-0.7c0.4,0.5,0.7,1,0.8,1.6h12.7c0.2-0.6,0.4-1.1,0.8-1.6
	l1.4,0.7C24.5,20,37.9,23,37.9,16.6z"/>
<path d="M31.9,22.2c-3.2-0.6-7.4-0.9-11.9-0.9s-8.7,0.3-11.9,0.9C4.2,23,2.3,24,2.3,25.3v6c0,1.4,1.9,2.4,5.8,3.1
	c2,0.4,4.5,0.6,7.2,0.8c-0.5,0.6-0.8,1.3-0.8,2.1c0,2.2,2.5,4,5.5,4c3,0,5.5-1.8,5.5-4c0-0.8-0.3-1.5-0.8-2.1
	c2.7-0.1,5.2-0.4,7.2-0.8c3.9-0.7,5.8-1.7,5.8-3.1v-6C37.7,24,35.8,23,31.9,22.2z M8.5,23.7c3.1-0.6,7.1-1,11.3-1s8.2,0.3,11.3,1
	c3.1,0.6,4.3,1.3,4.7,1.7c-0.3,0.3-1.6,1-4.7,1.7c-3.1,0.6-7.1,1-11.3,1s-8.2-0.3-11.3-1c-3.1-0.6-4.3-1.3-4.7-1.7
	C4.2,25,5.4,24.3,8.5,23.7z M24.1,37.7c0,1.7-1.9,3-4.1,3c-2.3,0-4.1-1.4-4.1-3c0-1.7,1.9-3,4.1-3C22.3,34.7,24.1,36,24.1,37.7z
	 M31.3,33.2c-3.1,0.6-7.1,0.9-11.3,0.9s-8.2-0.3-11.3-0.9c-3.3-0.7-4.5-1.4-4.7-1.7v-4.6c0.9,0.4,2,0.7,3.3,1
	C10.7,28.6,15.2,29,20,29c4.8,0,9.3-0.4,12.7-1.2c1.3-0.3,2.4-0.6,3.3-1v4.6C35.8,31.8,34.6,32.5,31.3,33.2z"/>
</svg>
