<?xml version="1.0" encoding="utf-8"?>
<!-- Generator: Adobe Illustrator 21.0.0, SVG Export Plug-In . SVG Version: 6.00 Build 0)  -->
<svg version="1.1" id="Capa_1" xmlns="http://www.w3.org/2000/svg" xmlns:xlink="http://www.w3.org/1999/xlink" x="0px" y="0px"
	 viewBox="0 0 468 107.7" style="enable-background:new 0 0 468 107.7;" xml:space="preserve">
<style type="text/css">
	.st0{fill:#211915;}
	.st1{clip-path:url(#SVGID_2_);}
	.st2{clip-path:url(#SVGID_4_);}
	.st3{fill:#B79A29;}
	.st4{fill:#B89F46;}
</style>
<title>Recurso 5</title>
<path class="st0" d="M127.6,76.4c-0.4,0.8-0.9,1.5-1.3,2.3c-0.8,1.3-1.7,2.7-2.3,3.9c-1,1.8-1.5,2.4-2.4,4.2
	c-1.2,1.5-2.5,2.9-3.9,4.3c-2.6,2-7.6,6.5-7.9,6.7c-2.4,1.1-4.5,2.9-7.6,4.2c-2.2,1-14.1,4.4-17,4.8l-4.5,0.4c-1.5,0.1-3,0-4.5-0.1
	c-4.6-0.3-9.1-1.1-13.6-2.4c-2-0.6-4.1-1.4-6-2.3c-1.7-0.8-4.1-1.3-5.1-2.8c-4.4-1.2-13.1-10.1-16.1-14C14.8,58,27.3,20,57,7.4
	c18.7-7.9,42.5-5.1,57.4,8.7c11.3,10.2,17.7,24.8,17.7,40C132.2,63.2,130.7,70.1,127.6,76.4z"/>
<g>
	<defs>
		<path id="SVGID_1_" d="M127.6,76.4c-0.4,0.8-0.9,1.5-1.3,2.3c-0.8,1.3-1.7,2.7-2.3,3.9c-1,1.8-1.5,2.4-2.4,4.2
			c-1.2,1.5-2.5,2.9-3.9,4.3c-2.6,2-7.6,6.5-7.9,6.7c-2.4,1.1-4.5,2.9-7.6,4.2c-2.2,1-14.1,4.4-17,4.8l-4.5,0.4
			c-1.5,0.1-3,0-4.5-0.1c-4.6-0.3-9.1-1.1-13.6-2.4c-2-0.6-4.1-1.4-6-2.3c-1.7-0.8-4.1-1.3-5.1-2.8c-4.4-1.2-13.1-10.1-16.1-14
			C14.8,58,27.3,20,57,7.4c18.7-7.9,42.5-5.1,57.4,8.7c11.3,10.2,17.7,24.8,17.7,40C132.2,63.2,130.7,70.1,127.6,76.4z"/>
	</defs>
	<clipPath id="SVGID_2_">
		<use xlink:href="#SVGID_1_"  style="overflow:visible;"/>
	</clipPath>
	<g class="st1">
		<g>
			<defs>
				<rect id="SVGID_3_" x="-0.2" y="8" width="139" height="101"/>
			</defs>
			<clipPath id="SVGID_4_">
				<use xlink:href="#SVGID_3_"  style="overflow:visible;"/>
			</clipPath>
			<g class="st2">
				
					<image style="overflow:visible;enable-background:new    ;" width="317" height="230" xlink:href="BA0E539F.jpeg"  transform="matrix(0.44 0 0 0.44 0 6.35)">
				</image>
			</g>
		</g>
		<path class="st3" d="M123.9,77.1c-2.5,5-5.6,9.6-9.4,13.7c-9.8,7.5-17,13.1-30.3,14.6c-2.8,0.4-5.6,0.5-8.4,0.3
			c-4.3-0.3-8.5-1-12.7-2.2c-1.9-0.6-3.8-1.3-5.6-2.1c-8.2-3.8-14.2-8.3-19.8-15.7c-19.3-25.8-7.6-61.3,20.1-73
			c17.4-7.3,39.7-4.8,53.6,8.2c10.6,9.5,16.6,23.1,16.5,37.3C128.2,64.7,126.8,71.2,123.9,77.1L123.9,77.1z M22.5,50.9
			c0,10.3,0.6,17,5.3,26.2c4.1,8.3,10.3,15.5,18,20.8c16.4,10.8,37.3,13.2,55.4,4.9c14.6-6.7,25.5-19.4,30-34.8
			c4.4-15.6,1.4-32.3-8.3-45.3C113.5,9.9,97,0,80.4,0C69,0,64.7,0.5,54.5,4.9C43.2,9.7,33.3,19.4,27.9,30.3
			C25.5,35.1,22.5,43.9,22.5,50.9z"/>
	</g>
</g>
<path class="st4" d="M214.4,81.5v4.7c-0.3,0.5-0.5,1.1-0.3,1.8c0.1,0.3,0.3,0.5,0.6,0.6c0.6,0.2,1.2,0.3,1.7,0.2v0.8h-8v-0.8
	c0.4,0,0.7-0.1,1.1-0.2c0.2-0.1,0.4-0.3,0.6-0.6c0.1-0.2,0.2-0.8,0.4-1.8V75.1c-0.2-0.9-0.3-1.5-0.4-1.8c-0.1-0.3-0.3-0.5-0.6-0.6
	c-0.3-0.1-0.7-0.2-1.1-0.2l0,0h6.6c0,0,4,0,5,0.9c1,0.8,1.5,2,1.5,3.3c0,1-0.3,2.1-1,2.8c-0.7,0.8-1.6,1.4-2.7,1.6
	c-1.3,0.2-2.6,0.3-3.9,0.3L214.4,81.5z M214.4,73.6v7.4h0.6c0.8,0.1,1.7-0.3,2.3-0.9c0.6-0.8,0.9-1.8,0.8-2.8c0.1-1-0.2-2-0.8-2.8
	c-0.6-0.6-1.5-0.9-2.4-0.9L214.4,73.6z M232.5,82.6h-6.1c0,1.3,0.4,2.6,1.2,3.7c0.5,0.6,1.2,1,2,1c0.5,0,0.9-0.1,1.3-0.4
	c0.5-0.4,0.9-0.9,1.3-1.5l0.4,0.3c-0.4,1.1-1.1,2-2,2.7c-2,1.4-4.8,0.9-6.2-1.1c0,0,0-0.1-0.1-0.1c-0.7-1.2-1.1-2.6-1-4
	c-0.1-1.7,0.4-3.4,1.5-4.7c0.9-1.1,2.2-1.7,3.5-1.7c1.2,0,2.2,0.5,2.9,1.5C232.1,79.5,232.6,81,232.5,82.6z M229.6,82.6
	c0-0.9,0-1.9-0.2-2.8c-0.1-0.4-0.3-0.8-0.6-1.1c-0.2-0.2-0.4-0.2-0.7-0.2c-0.4,0-0.8,0.3-1,0.6c-0.5,0.9-0.8,2-0.7,3.1v0.4H229.6z
	 M238.4,72.6v5h3v1h-3V86c-0.1,0.4-0.1,0.9,0,1.3c0,0.2,0.2,0.4,0.3,0.5c0.1,0.1,0.3,0.2,0.4,0.2c0.5,0,1-0.4,1.5-1.2l0.4,0.3
	c-0.4,1.4-1.7,2.4-3.1,2.4c-0.7,0-1.3-0.2-1.8-0.6c-0.5-0.4-0.8-0.8-0.9-1.4c-0.1-0.8,0-1.6,0.3-2.3v-6.5h-2v-0.5
	c1-0.7,1.9-1.6,2.7-2.5c0.8-0.9,1.4-1.9,1.9-3H238.4z M257.2,86.2l0.4,0.3c-0.4,0.9-1.1,1.7-2,2.3c-0.7,0.5-1.6,0.8-2.5,0.8
	c-1.4,0-2.7-0.6-3.6-1.8c-0.9-1.2-1.3-2.7-1.3-4.2c0-1.5,0.4-3,1.2-4.3c0.9-1.4,2.4-2.2,4-2.2c1,0,2,0.3,2.8,0.9c0.6,0.5,1,1.2,1,2
	c0,0.4-0.1,0.8-0.4,1.1c-0.3,0.3-0.7,0.4-1.1,0.4c-0.4,0-0.9-0.2-1.2-0.5c-0.4-0.5-0.6-1.1-0.6-1.7c0-0.4-0.1-0.8-0.4-1.1
	c-0.2-0.2-0.4-0.3-0.6-0.3c-0.4,0-0.8,0.3-1,0.6c-0.5,0.9-0.7,2-0.6,3c0,1.1,0.2,2.1,0.5,3.2c0.2,0.9,0.7,1.6,1.4,2.3
	c0.4,0.4,1,0.6,1.5,0.5c0.4,0,0.8-0.1,1.1-0.3c0.5-0.3,0.9-0.7,1.2-1.1L257.2,86.2z M265.4,87.1c-0.9,1-2,1.6-3.3,1.7
	c-0.5,0-1.1-0.2-1.4-0.6c-0.4-0.4-0.6-0.9-0.6-1.5c0-0.8,0.4-1.6,1-2.2c1.3-1.1,2.8-1.9,4.3-2.6v-1.1c0-0.5,0-1-0.1-1.5
	c-0.1-0.2-0.3-0.4-0.5-0.5c-0.2-0.2-0.5-0.2-0.8-0.2c-0.4,0-0.8,0.1-1.2,0.3c-0.2,0.1-0.3,0.3-0.3,0.5c0,0.2,0.1,0.4,0.3,0.6
	c0.2,0.3,0.4,0.6,0.4,0.9c0,0.4-0.1,0.7-0.4,0.9c-0.3,0.3-0.6,0.4-1,0.4c-0.4,0-0.8-0.1-1.1-0.4c-0.3-0.3-0.5-0.6-0.5-1
	c0-0.6,0.2-1.1,0.6-1.6c0.5-0.5,1-0.9,1.7-1.1c0.7-0.3,1.5-0.4,2.3-0.4c0.8,0,1.6,0.2,2.3,0.6c0.5,0.3,0.9,0.8,1.1,1.4
	c0.1,0.7,0.2,1.4,0.1,2.2V86c0,0.3,0,0.6,0.1,0.9c0,0.1,0.1,0.2,0.2,0.3c0.1,0.1,0.2,0.1,0.3,0.1c0.2,0,0.4-0.1,0.6-0.4l0.3,0.3
	c-0.3,0.5-0.7,0.9-1.1,1.2c-0.4,0.3-0.8,0.4-1.3,0.4c-1,0.1-1.8-0.6-1.9-1.5C265.4,87.2,265.4,87.1,265.4,87.1L265.4,87.1z
	 M265.4,86.5v-3.9c-0.8,0.5-1.6,1.2-2.1,1.9c-0.3,0.4-0.5,0.9-0.5,1.4c0,0.4,0.1,0.7,0.4,1c0.2,0.2,0.5,0.4,0.8,0.3
	C264.5,87.2,265,87,265.4,86.5L265.4,86.5z M275.4,77.5v2.6c0.7-0.9,1.5-1.7,2.3-2.4c0.5-0.4,1-0.6,1.6-0.6c0.4,0,0.8,0.1,1.1,0.4
	c0.3,0.3,0.4,0.8,0.4,1.2c0,0.5-0.1,0.9-0.4,1.3c-0.2,0.3-0.6,0.5-0.9,0.5c-0.4,0-0.8-0.1-1.1-0.4c-0.2-0.2-0.4-0.3-0.5-0.5
	c-0.1-0.1-0.2-0.1-0.3-0.1c-0.2,0-0.5,0.1-0.6,0.3c-0.4,0.3-0.6,0.8-0.7,1.2c-0.3,0.8-0.8,2.7-0.8,2.7l1,2.7v0.7
	c0,0-0.6,0.8-0.5,0.9c0.1,0.2,0.2,0.4,0.4,0.5c0.3,0.1,0.7,0.2,1.1,0.2v0.8h-6v-0.8c0.3,0,0.6-0.2,0.8-0.4c0.2-0.6,0.3-1.3,0.2-1.9
	V80c0.1-0.4,0.1-0.9,0-1.3c-0.1-0.2-0.2-0.4-0.4-0.5c-0.2-0.1-0.4-0.2-0.6-0.2v-0.4L275.4,77.5L275.4,77.5z M291,82.5h-6.1
	c0,1.3,0.4,2.6,1.2,3.7c0.5,0.6,1.2,1,2,1c0.5,0,0.9-0.1,1.3-0.4c0.5-0.4,0.9-0.9,1.3-1.5l0.4,0.3c-0.4,1.1-1.1,2-2,2.7
	c-2,1.4-4.8,0.9-6.2-1.1c0,0,0-0.1-0.1-0.1c-0.7-1.2-1.1-2.6-1-4c-0.1-1.7,0.4-3.4,1.5-4.7c0.9-1.1,2.2-1.7,3.5-1.7
	c1.2,0,2.2,0.5,2.9,1.5C290.6,79.4,291,81,291,82.5L291,82.5z M287.6,82.5c0-0.9,0-1.9-0.2-2.8c-0.1-0.4-0.3-0.8-0.6-1.1
	c-0.2-0.2-0.4-0.2-0.7-0.2c-0.4,0-0.8,0.3-1,0.6c-0.5,0.9-0.8,2-0.7,3.1v0.5L287.6,82.5z M304.4,87c-0.9,1-2,1.6-3.3,1.7
	c-0.5,0-1.1-0.2-1.4-0.6c-0.4-0.4-0.6-0.9-0.6-1.5c0-0.8,0.4-1.6,1-2.2c1.3-1.1,2.8-1.9,4.3-2.6v-1.1c0-0.5,0-1-0.1-1.5
	c-0.1-0.2-0.3-0.4-0.5-0.5c-0.2-0.2-0.5-0.2-0.8-0.2c-0.4,0-0.8,0.1-1.2,0.3c-0.2,0.1-0.3,0.3-0.3,0.5c0,0.2,0.1,0.4,0.3,0.6
	c0.2,0.3,0.4,0.6,0.4,0.9c0,0.4-0.1,0.7-0.4,0.9c-0.3,0.3-0.6,0.4-1,0.4c-0.4,0-0.8-0.1-1.1-0.4c-0.3-0.3-0.5-0.6-0.5-1
	c0-0.6,0.2-1.1,0.6-1.6c0.5-0.5,1-0.9,1.7-1.1c0.7-0.3,1.5-0.4,2.3-0.4c0.8,0,1.6,0.2,2.3,0.6c0.5,0.3,0.9,0.8,1.1,1.4
	c0.1,0.7,0.2,1.4,0.1,2.2V86c0,0.3,0,0.6,0.1,0.9c0,0.1,0.1,0.2,0.2,0.3c0.1,0.1,0.2,0.1,0.3,0.1c0.2,0,0.4-0.1,0.6-0.4l0.3,0.3
	c-0.3,0.5-0.7,0.9-1.1,1.2c-0.4,0.3-0.8,0.4-1.3,0.4c-1,0.1-1.8-0.6-1.9-1.5C304.4,87.2,304.4,87.1,304.4,87L304.4,87z M304.4,86.5
	v-3.9c-0.8,0.5-1.6,1.2-2.1,1.9c-0.3,0.4-0.5,0.9-0.5,1.4c0,0.4,0.1,0.7,0.4,1c0.2,0.2,0.5,0.4,0.8,0.3
	C303.5,87.2,304,87,304.4,86.5L304.4,86.5z M315.4,77.5v1.5c0.4-0.6,1-1,1.6-1.4c0.5-0.3,1-0.4,1.6-0.4c0.6,0,1.3,0.2,1.7,0.6
	c0.5,0.4,0.8,1,0.9,1.6c0.2,0.9,0.2,1.8,0.2,2.8v4.5c0.1,0.6,0.2,1.1,0.4,1.7c0.2,0.2,0.4,0.3,0.6,0.4v0.8h-5v-0.4
	c0.4,0,0.7-0.2,0.8-0.6c0.2-0.5,0.2-1,0.2-1.6v-5.5c0-0.6,0-1.3-0.1-1.9c-0.1-0.2-0.2-0.4-0.4-0.6c-0.2-0.1-0.4-0.2-0.6-0.2
	c-0.7,0-1.3,0.5-1.9,1.6V87c0,0.6,0,1.1,0.2,1.7c0.2,0.3,0.5,0.4,0.8,0.4v0.5h-6v-0.8c0.8-0.1,1.1-0.2,1.3-0.5s0.2-0.7-0.3-1.6V80
	c0.5-0.9,0.4-1.5,0.3-1.7s-0.5-0.4-1.3-0.4v-0.3L315.4,77.5z M335.4,72.5v13.2c-0.2,0.5-0.3,1.1-0.3,1.6c0,0.2,0.2,0.5,0.4,0.6
	c0.3,0.1,0.6,0.2,0.9,0.3v0.4l-4,1v-1.9c0,0-1.7,1.2-2.2,1.5c-0.5,0.3-1,0.4-1.5,0.4c-1.4,0-2.7-0.8-3.4-2c-0.7-1.2-1-2.6-1-4
	c0-1.2,0.2-2.3,0.6-3.4c0.3-0.9,0.9-1.7,1.7-2.3c0.7-0.5,1.5-0.8,2.3-0.8c0.5,0,1,0.1,1.4,0.3c0.6,0.4,1.3,0.8,2,1.1V75
	c-0.4-0.5-0.6-1-0.8-1.6c-0.1-0.2-0.2-0.4-0.4-0.5c-0.2-0.1-0.5-0.2-0.8-0.2v-0.1L335.4,72.5L335.4,72.5z M331.4,80.1
	c-0.6-1.2-1.3-1.8-2.1-1.8c-0.3,0-0.5,0.1-0.7,0.3c-0.4,0.4-0.6,0.9-0.7,1.4c-0.2,1-0.3,2-0.3,3c0,1.1,0.1,2.2,0.3,3.3
	c0.1,0.6,0.4,1.1,0.8,1.5c0.2,0.2,0.5,0.3,0.7,0.2c0.7,0,1.3-0.6,2-1.7L331.4,80.1L331.4,80.1z M348.4,78.6v8.3
	c0.2,0.5,0.4,1,0.6,1.5c0.4,0.3,0.9,0.5,1.4,0.4v0.8h-7v-0.8c0.5,0.1,1.1,0,1.6-0.2c0.2-0.1,0.4-0.3,0.4-0.5c0-0.4,0-0.8,0-1.3v-8.3
	h-2v-1h2v-1.5c0-1.1,0.4-2.2,1.1-3c0.8-0.8,2-1.3,3.1-1.2c0.7-0.1,1.4,0.1,2,0.6c0.4,0.3,0.6,0.8,0.6,1.3c0,0.4-0.1,0.7-0.4,1
	c-0.3,0.3-0.7,0.4-1.1,0.4c-0.3,0-0.7-0.1-0.9-0.3c-0.2-0.2-0.3-0.5-0.3-0.8c0-0.2,0-0.3,0.1-0.5c0-0.1,0-0.3,0-0.4
	c0-0.1,0-0.3-0.1-0.4c-0.1-0.1-0.3-0.2-0.4-0.2c-0.2,0-0.4,0.1-0.5,0.3c-0.2,0.3-0.2,0.7-0.2,1l1,2.1v1.5h1v1H348.4L348.4,78.6z
	 M357.3,77.1c-1.5-0.1-2.9,0.6-3.8,1.9c-0.9,1.3-1.4,2.8-1.4,4.4c0,1.5,0.4,3.1,1.4,4.3c0.9,1.3,2.4,2,3.9,1.9c1.6,0.1,3.1-0.7,4-2
	c0.8-1.2,1.3-2.7,1.2-4.2c0-1.1-0.2-2.2-0.6-3.2C361.1,78.4,359.3,77.2,357.3,77.1L357.3,77.1z M357.3,78c0.3,0,0.6,0.1,0.8,0.3
	c0.3,0.3,0.6,0.7,0.7,1.2c0.2,1,0.3,1.9,0.2,2.9c0,1.6,0,3.2-0.2,4.8c-0.1,0.5-0.3,0.9-0.6,1.2c-0.6,0.5-1.4,0.4-1.9-0.2
	c-0.3-0.4-0.5-0.9-0.6-1.3c-0.1-0.8-0.2-1.7-0.2-2.5c0-1.7,0-3,0.1-4c0-0.7,0.2-1.3,0.6-1.9C356.5,78.2,356.9,78,357.3,78L357.3,78z
	 M369.5,77.1c2,0,3.8,1.2,4.6,3c0.4,1,0.7,2.1,0.6,3.2c0.1,1.5-0.4,2.9-1.2,4.2c-0.9,1.3-2.4,2.1-4,2c-1.5,0.1-3-0.6-3.9-1.9
	c-0.9-1.2-1.4-2.8-1.4-4.3c0-1.6,0.5-3.1,1.4-4.4C366.6,77.7,368,77,369.5,77.1L369.5,77.1z M369.5,78c-0.4,0-0.8,0.2-1,0.5
	c-0.4,0.6-0.6,1.2-0.6,1.9c-0.1,1-0.1,2.3-0.1,4c0,0.8,0.1,1.7,0.2,2.5c0,0.5,0.2,1,0.6,1.3c0.5,0.5,1.3,0.6,1.9,0.2
	c0.3-0.3,0.5-0.7,0.6-1.2c0.2-1.6,0.3-3.2,0.2-4.8c0-1,0-2-0.2-2.9c-0.1-0.4-0.3-0.8-0.7-1.2C370.1,78.1,369.9,78,369.5,78L369.5,78
	z M387.4,72.6v13.1c-0.1,0.5-0.1,1.1,0,1.6c0,0.2,0.2,0.5,0.4,0.6c0.2,0.1,0.4,0.2,0.7,0.3v0.4l-5,1v-1.9c-0.2,0.6-0.6,1.1-1,1.5
	c-0.5,0.3-1,0.4-1.5,0.4c-1.4,0-2.7-0.8-3.4-2c-0.7-1.2-1-2.6-1-4c0-1.2,0.2-2.3,0.6-3.4c0.3-0.9,0.9-1.7,1.7-2.3
	c0.7-0.5,1.5-0.8,2.3-0.8c0.5,0,1,0.1,1.4,0.3c0.5,0.2,0.8,0.6,0.8,1.1V75c0.4-0.5,0.5-1,0.4-1.6c-0.1-0.2-0.2-0.4-0.4-0.5
	c-0.3-0.1-0.7-0.2-1-0.2v-0.1H387.4L387.4,72.6z M384.4,80.1c-0.6-1.2-1.3-1.8-2.1-1.8c-0.3,0-0.5,0.1-0.7,0.3
	c-0.4,0.4-0.6,0.9-0.7,1.4c-0.2,1-0.3,2-0.3,3c0,1.1,0.1,2.2,0.3,3.3c0.1,0.6,0.4,1.1,0.8,1.5c0.2,0.2,0.5,0.3,0.7,0.2
	c0.7,0,1.3-0.6,2-1.7L384.4,80.1z"/>
<path class="st4" d="M149.4,19.8c10.8,12.2,19.8,22,27,29.4c0-1.5,0-2.5,0-3V32.3c0,0-0.5-5.7-0.9-7.2c-0.3-1.4-1.2-2.6-2.4-3.4
	c-1.3-0.9-2.8-1.4-4.3-1.5c-0.9-0.1-1.3-0.5-1.3-1.1s0.4-1,1.2-1c0.6,0,1.2,0.1,1.7,0.1c2,0.2,4,0.3,5.9,0.2c3.3,0,5.8-0.1,7.5-0.3
	c0.7-0.1,1.3-0.1,1.8-0.1c0.9,0,1.4,0.3,1.4,1s-0.6,1.1-1.8,1.2c-1.6,0.2-3,0.8-4.2,1.9c-1.3,1.1-2.6,6.6-2.6,6.6l1,20.2L179.1,63
	c0,1.2-0.4,1.8-1.1,1.8c-0.2,0-0.5-0.1-0.7-0.2c-1.6-1.5-3.2-3-4.6-4.7c-2.8-2.9-7-7.6-12.6-13.8s-9.5-10.8-11.7-13.4
	c0,0.6-0.1,6.2-0.1,16.9c0,2.6,0.1,5.2,0.4,7.8c0.2,1.7,1.2,3.2,2.6,4.1c1.2,0.8,2.6,1.2,4,1.3c0.8,0,1.1,0.3,1.1,0.9s-0.4,1-1.2,1
	c-0.7,0-1.3,0-2-0.1c-1.7-0.2-3.4-0.2-5.1-0.2c-2.4,0-4.8,0.1-7.3,0.3c-0.7,0.1-1.3,0.1-2,0.2c-0.9,0-1.3-0.4-1.3-1.1
	c0-0.5,0.7-0.8,2.1-1c2.5-0.2,4.1-1.1,4.8-2.6c0.7-2,1.1-4.2,1-6.3c0-11.6-0.1-18.7-0.2-21.2c-0.1-2.5-1-5-2.4-7
	c-1.3-1.9-3.3-3.2-5.5-3.7c-0.9-0.2-1.3-0.5-1.3-1.1c0-0.8,0.5-1.1,1.4-1.1c0.3,0,0.7,0,1,0.1c0.5,0,1.4,0.1,2.8,0.1
	C144.1,19.7,146.9,19.7,149.4,19.8L149.4,19.8z M201.2,34.9c0.1,2.5,0.2,5.8,0.2,10c0,6.4,0.1,10.5,0.2,12.3c0,1.5,0.5,2.9,1.4,4.1
	c0.7,0.8,1.7,1.3,2.8,1.4c1.4,0,2.7-0.5,3.8-1.4c1.3-0.9,2.3-2.2,2.8-3.6c0.7-2.4,1-4.9,0.9-7.4l0.1-7.9c0.1-1.4,0-2.8-0.3-4.1
	c-0.2-0.7-1-1-2.3-1.1s-2.1-0.4-2.1-1.1c0-0.3,0.2-0.7,0.5-0.8c0.9-0.1,1.8-0.2,2.7-0.2c3.3,0,6.4-0.1,9.2-0.2
	c0.8,7.8-1.1,20.8,0.4,27.5c0.1,0.7,0.9,1.1,2.3,1.2c0.8,0.1,1.3,0.4,1.3,1s-0.5,1-1.4,1h-0.9c-0.7,0-1.4,0-2.4,0
	c-3.2,0-4.9,0-5.3,0h-1c-0.5,0-0.7-0.1-0.8-0.2c-0.2-0.4-0.2-0.9-0.2-1.4c0-1.3,0.1-2.5,0.3-3.8c-1.4,1.8-3.2,3.4-5.2,4.5
	c-1.8,1-3.7,1.5-5.8,1.5c-6.1,0-9.1-3.4-9.1-10.2v-11c0-3.8-0.1-6-0.4-6.7s-1-1.1-2.2-1.2s-1.6-0.5-1.6-0.9c0-0.7,0.5-1,1.4-1
	C196.9,35.1,200.5,35,201.2,34.9L201.2,34.9z M240.3,49.6c0,0.5,0,1,0,1.3c-0.1,3.1,0.8,6.1,2.5,8.6c1.5,2.3,4,3.6,6.7,3.5
	c2.9,0,5.7-1.2,8.5-3.7c0.6-0.5,1-0.7,1.2-0.7c0.6,0,0.9,0.3,0.9,1s-0.7,1.4-2.1,2.8c-1.5,1.4-3.3,2.4-5.3,3.1c-2.1,0.7-4.2,1-6.4,1
	c-4.9,0-8.7-1.5-11.4-4.4c-2.7-2.8-4.2-6.6-4.1-10.5c-0.1-4.5,1.6-8.9,4.7-12.2c3.1-3.2,7.4-5,11.8-4.9c4.4,0,7.8,1.5,10.1,4.5
	c2.3,3,3.5,5.8,3.5,8.5c0,0.8-0.2,1.4-0.7,1.5c-1.5,0.2-3,0.1-4.4-0.3L240.3,49.6L240.3,49.6z M240.5,46.7l6.1,0.1
	c2.7,0,4.3-0.2,4.9-0.6c0.7-0.6,1-1.4,0.9-2.3c0-1.9-0.6-3.7-1.7-5.2c-0.9-1.4-2.4-2.2-4-2.2C243.1,36.5,241,39.9,240.5,46.7
	L240.5,46.7z M283.2,56.1c1.5-3.3,3-6.8,4.3-10.5c1.3-3.6,2-5.9,2-6.8c0-1-0.7-1.8-1.6-1.9c-1-0.3-1.6-0.7-1.6-1.2
	c0-0.6,0.4-0.9,1.3-0.9c0.4,0,1.3,0.1,2.6,0.2s2.1,0.2,2.5,0.2c1,0,2-0.1,2.9-0.2c0.4-0.1,0.8-0.1,1.2-0.1c0.7,0,1.1,0.3,1.1,1
	c0,0.5-0.5,0.8-1.5,1c-2.3,0.4-4.2,2.4-5.7,6.3c-1.7,4.4-3.4,8.4-4.9,12.1c-1.5,3.7-2.7,6.4-3.6,8.1c-0.4,0.9-0.9,1.8-1.5,2.7
	c-0.2,0.1-0.4,0.2-0.7,0.2c-0.3,0-0.6-0.2-1-0.7s-1.5-2.8-3.7-7.2l-8.1-16.4c-1.2-2.3-2.1-3.8-2.7-4.2c-0.5-0.4-1-0.7-1.6-0.9
	c-0.9-0.2-1.4-0.5-1.4-1c0-0.7,0.5-1,1.4-1c0.4,0,1,0,1.8,0.1c1.9,0.2,3.8,0.3,5.6,0.3c0.7,0,1.6,0,2.5-0.1c1.7-0.2,2.7-0.3,3-0.3
	c1.6,0,2.4,0.3,2.4,0.8s-0.4,1-1.3,1.2c-1.2,0.1-1.9,0.7-1.9,1.8c0,0.6,1,3.1,3,7.4S281.8,53.6,283.2,56.1L283.2,56.1z M315.4,62.2
	c-1.3,1.3-2.8,2.4-4.5,3.2c-1.4,0.7-3,1-4.5,1c-2.1,0.1-4.2-0.7-5.7-2.2c-1.3-1.5-2-3.4-2-5.4c0-1.5,0.4-3,1.2-4.3
	c0.7-1.2,1.8-2.3,3-3c1.9-1,3.8-1.9,5.8-2.5c1.6-0.5,3.1-1.2,4.6-1.9c0.8-0.5,1.5-1.2,2-2c0.6-1.1,0.8-2.3,0.8-3.5
	c0.1-1.3-0.3-2.7-1.2-3.7c-0.8-0.9-2-1.5-3.3-1.4c-0.9-0.1-1.9,0.2-2.5,0.9c-0.6,0.9-1,1.9-1.1,3c-0.5,2.7-2,4.1-4.4,4.1
	c-0.9,0-1.8-0.3-2.5-0.9c-0.7-0.6-1.1-1.5-1-2.5c0-2.3,1.2-4,3.7-5.2c2.8-1.2,5.9-1.8,8.9-1.7c2.5-0.1,5,0.4,7.3,1.4
	c1.5,0.6,2.8,1.7,3.6,3.2c0.6,1.8,0.9,3.7,0.8,5.6l-0.1,8.5c-0.1,2.9,0,5.8,0.5,8.6c0.3,1.3,0.9,1.9,1.9,1.9h0.6
	c0.5,0,0.8-0.1,1-0.1c1,0,1.5,0.3,1.5,0.8c0,0.4-0.3,0.7-0.6,0.9c-1.2,0.5-2.4,0.8-3.6,0.9c-1.8,0.4-3.6,0.5-5.5,0.6
	c-1.2,0.1-2.4-0.2-3.4-1c-0.7-0.9-1.1-2.1-1.1-3.3L315.4,62.2z M315.6,47.8c-1.2,1.1-2.6,2.1-4.1,2.7c-1.5,0.7-2.8,1.6-4,2.8
	c-0.7,1.1-1.1,2.3-1,3.6c-0.1,1.4,0.3,2.7,1.1,3.8c0.6,0.8,1.6,1.3,2.6,1.3c1.5-0.1,2.9-0.8,3.9-1.9c1.2-1.3,1.8-3.5,1.8-6.8
	C315.9,52.4,315.8,50.5,315.6,47.8L315.6,47.8z M391.2,19.6c0.8,3.7,1.5,7.4,2.2,11.1c0.1,0.5-0.3,0.9-0.8,1c-0.1,0-0.1,0-0.2,0
	c-0.4,0-0.8-0.3-1.3-1c-2.4-3.6-4.7-5.9-6.7-7s-4.9-1.7-8.7-1.7c-2.1,0-4.1,0.2-6.2,0.5c-0.4,4.6-0.7,9.2-0.6,13.8
	c0,0.9,0,2.3,0.1,4.3h2.2c1.5,0,2.9-0.2,4.3-0.7c1.3-0.6,2.4-1.6,3.1-2.9c0.6-0.9,1-1.9,1.4-2.9c0.2-0.8,0.6-1.1,1.1-1.1
	s1,0.3,1,0.8c0,0.2,0,0.4-0.1,0.6c-0.3,1.5-0.4,5.8-0.4,13.1c0,0.9,0.1,1.9,0.3,2.8c0.1,0.2,0.1,0.4,0.1,0.6c0,0.7-0.4,1-1.1,1
	c-0.5,0-0.9-0.6-1.2-1.9c-0.4-2-1.5-3.8-3.2-5c-1.7-1.1-4.3-1.7-7.9-1.8c-0.1,3.9-0.2,6.5-0.2,7.8c-0.1,3.2,0,6.4,0.3,9.6
	c0.2,1,0.8,1.9,1.8,2.4c1,0.6,2.8,0.9,5.3,0.9c9,0,14.9-2.8,17.7-8.6c0.4-0.8,0.8-1.2,1.3-1.2c0.7,0,1,0.3,1,0.8
	c0,0.5-0.1,1-0.2,1.5l-2.3,10.1h-12.8c-3.6,0-7-0.1-10.1-0.3c-3.1-0.1-5.5-0.2-7.3-0.2c-2,0-5,0.1-8.9,0.3c-0.5,0-0.9,0.1-1.1,0.1
	c-1.1,0-1.7-0.4-1.7-1.1s0.5-1,1.4-1c2.3,0,3.8-0.6,4.6-1.8s1.2-3.8,1.2-7.6V36.1c0,0,0.4-10.1,0.3-11.6c0-1.1-0.5-2.2-1.3-3
	c-1.1-0.7-2.4-1.1-3.7-1.2c-0.8-0.1-1.1-0.4-1.1-1s0.4-1.1,1.3-1.1l8.6,0.2L391.2,19.6L391.2,19.6z M412.3,41.4
	c0.9-2.1,2.3-3.9,4.1-5.4c1.5-1.2,3.3-1.8,5.2-1.8c1.6-0.1,3.2,0.5,4.3,1.6c1.1,1,1.7,2.4,1.6,3.9c0,1.2-0.4,2.3-1.1,3.2
	c-0.7,0.8-1.7,1.3-2.8,1.3c-0.7,0-1.5-0.2-2.1-0.7c-0.7-0.6-1.3-1.4-1.8-2.3c-0.8-1.6-1.6-2.3-2.2-2.3c-0.9,0-1.9,0.9-3,2.7
	s-1.7,5.3-1.7,10.4c0,6.5,0.2,10.1,0.7,10.9c0.5,0.7,1.4,1.1,2.9,1.1c1.3,0,2,0.4,2,1.1c0,0.7-0.6,1-1.9,1c-0.7,0-1.8-0.1-3.1-0.2
	s-2.4-0.2-3.5-0.2c-2.4,0-4.7,0.1-7,0.3c-1,0.1-1.5,0.1-1.7,0.1c-1,0-1.5-0.4-1.5-1.1c0-0.7,0.6-1.1,1.8-1c0.9,0,1.7-0.2,2.4-0.8
	c0.5-0.5,0.7-1.6,0.7-3.2l0.1-9c0-1.8-0.1-4.1-0.2-6.8c0-1.6-0.2-3.2-0.4-4.8c-0.1-0.5-0.5-1-0.9-1.4c-0.6-0.4-1.3-0.7-2-0.7
	c-0.6,0-1.1-0.1-1.6-0.3c-0.2-0.1-0.3-0.4-0.3-0.8c0-0.7,0.6-1,1.8-1c2.2,0,5.9-0.3,11.2-0.9L412.3,41.4L412.3,41.4z M446.4,62.2
	c-1.3,1.3-2.8,2.4-4.5,3.2c-1.4,0.7-3,1-4.5,1c-2.1,0.1-4.2-0.7-5.7-2.2c-1.3-1.5-2-3.4-2-5.4c0-1.5,0.4-3,1.2-4.3
	c0.7-1.2,1.8-2.3,3-3c1.9-1,3.8-1.9,5.8-2.5c1.6-0.5,3.1-1.2,4.6-1.9c0.8-0.5,1.5-1.2,2-2c0.6-1.1,0.8-2.3,0.8-3.5
	c0.1-1.3-0.3-2.7-1.2-3.7c-0.8-0.9-2-1.5-3.3-1.4c-0.9-0.1-1.9,0.2-2.5,0.9c-0.6,0.9-1,1.9-1.1,3c-0.5,2.7-2,4.1-4.4,4.1
	c-0.9,0-1.8-0.3-2.5-0.9c-0.7-0.6-1.1-1.5-1-2.5c0-2.3,1.2-4,3.7-5.2c2.8-1.2,5.9-1.8,8.9-1.7c2.5-0.1,5,0.4,7.3,1.4
	c1.5,0.6,2.8,1.7,3.6,3.2c0.6,1.8,0.9,3.7,0.8,5.6l-0.1,8.5c-0.1,2.9,0,5.8,0.5,8.6c0.3,1.3,0.9,1.9,1.9,1.9h0.6
	c0.5,0,0.8-0.1,1-0.1c1,0,1.5,0.3,1.5,0.8c0,0.4-0.3,0.7-0.6,0.9c-1.2,0.5-2.4,0.8-3.6,0.9c-1.8,0.4-3.6,0.5-5.5,0.6
	c-1.2,0.1-2.4-0.2-3.4-1c-0.7-0.9-1.1-2.1-1.1-3.3L446.4,62.2z M446.9,47.8c-1.2,1.1-2.6,2.1-4.1,2.8c-1.5,0.7-2.8,1.6-4,2.8
	c-0.7,1.1-1.1,2.3-1,3.6c-0.1,1.4,0.3,2.7,1.1,3.8c0.6,0.8,1.6,1.3,2.6,1.3c1.5-0.1,2.9-0.8,3.9-1.9c1.2-1.3,1.8-3.5,1.8-6.8
	C447.2,52.4,447.1,50.6,446.9,47.8L446.9,47.8z"/>
</svg>
