<svg xmlns="http://www.w3.org/2000/svg" viewBox="0 0 184.29 158.84"><title>mail</title><g id="Capa_2" data-name="Capa 2"><g id="OBJECTS"><circle cx="91.3" cy="84.07" r="62.26" style="fill:#baf4ee"/><path d="M142.15,99V120a62.64,62.64,0,0,1-7.73,9V99h0V99c0-.15-3.79-3.27-6.68-5.63V92l3.49-.9a6.64,6.64,0,0,1,4.29.33c.61.26,1.24.51,1.87.71V94.9A61.13,61.13,0,0,1,142.14,99V99Z" style="fill:#7fd6cb;opacity:0.73"/><polygon points="2.7 4.19 20.96 47.06 34.32 37.92 42.05 49.17 43.45 30.2 59.61 20.35 2.7 4.19" style="fill:#ffb031"/><polygon points="37.28 35.9 20.96 47.06 34.32 37.92 42.05 49.17 43.45 30.2 17.7 14.87 37.28 35.9" style="fill:#ff9433"/><polygon points="43.11 34.85 17.7 14.87 43.45 30.2 43.11 34.85" style="fill:#f73"/><path d="M42.38,54.51c-.14-.84-.33-1.67-.54-2.48l1.25-.34c.23.85.42,1.72.57,2.59Z" style="fill:#00c8b7"/><path d="M27.26,83.63A10.72,10.72,0,0,1,22,81.89l.72-1.08a9.43,9.43,0,0,0,4.58,1.52Zm5.39-1.06-.57-1.16a13,13,0,0,0,3.88-3.05l1,.87A14.32,14.32,0,0,1,32.64,82.57Zm-14.2-4.82A10.7,10.7,0,0,1,17.32,73c0-.13,0-.26,0-.39l0-.28,1.29.09v.24c0,.12,0,.23,0,.34a9.4,9.4,0,0,0,1,4.14Zm50.18-.3v-1.3c1.69,0,3.43-.08,5.17-.21l.09,1.29C72.1,77.38,70.33,77.45,68.61,77.46Zm-5.26-.17-.83-.06c-1.59-.13-3-.31-4.42-.55l.22-1.28c1.34.23,2.75.41,4.3.54l.81.06Zm15.74-.59-.17-1.29c1.67-.23,3.39-.51,5.11-.84l.25,1.27C82.53,76.18,80.78,76.47,79.09,76.7ZM53,75.39a25.11,25.11,0,0,1-4.25-1.88l-.61-.35L48.77,72l.57.33a23.85,23.85,0,0,0,4,1.79ZM40,74.87l-1.12-.65A29.12,29.12,0,0,0,41,69.6l1.22.44A30.41,30.41,0,0,1,40,74.87Zm49.39-.14-.31-1.26c1.62-.39,3.31-.84,5-1.33l.36,1.25C92.74,73.88,91,74.33,89.4,74.72Zm10.08-2.87-.4-1.23q2.47-.8,4.92-1.67l.43,1.22Q102,71,99.48,71.85Zm-55.7-1.71a35.89,35.89,0,0,0-3.86-2.54l-.43-.23.59-1.15.46.24a37.49,37.49,0,0,1,4,2.63Zm-23.32-2-.91-.93a11.08,11.08,0,0,1,4.77-2.56l.44,1.22A10.1,10.1,0,0,0,20.45,68.19Zm14.29-2.53a20.62,20.62,0,0,0-4.49-.5h-.53l0-1.3A22,22,0,0,1,35,64.4Zm8.88-.76-1.28-.23a30.1,30.1,0,0,0,.46-5.08h1.3A31.31,31.31,0,0,1,43.62,64.9Z" style="fill:#00c8b7"/><path d="M109.39,68.34l-.46-1.21,2.42-.93.47,1.21Z" style="fill:#00c8b7"/><path d="M150.22,99.95a1.3,1.3,0,0,1-.12-2.59,30.8,30.8,0,0,0,20.3-10.53,1.3,1.3,0,0,1,2,1.7,33.38,33.38,0,0,1-22,11.41Z" style="fill:#00c8b7"/><path d="M134.42,99,89.24,125.68,44.06,99a.25.25,0,0,1,0-.07c0-.17,2.53-2.25,6.33-5.34l.1-.09C63,83.4,89.24,62.66,89.24,62.66S115.5,83.4,128,93.53c3.86,3.13,6.4,5.25,6.44,5.43A.25.25,0,0,1,134.42,99Z" style="fill:#7a4c08"/><path d="M107.82,40.6H59.07a7.57,7.57,0,0,0-7.57,7.57v73.7a7.57,7.57,0,0,0,7.57,7.57h61.08a7.57,7.57,0,0,0,7.57-7.57V60.5Z" style="fill:#fff"/><path d="M107.82,52.93a7.57,7.57,0,0,0,7.57,7.57h12.33L107.82,40.6Z" style="fill:#e6e8e8"/><rect x="63.03" y="53.05" width="22.21" height="22.21" rx="2.7" ry="2.7" style="fill:#82ebe3"/><path d="M105.58,81.44H65.23a2.17,2.17,0,0,0-2.17,2.17h0a2.17,2.17,0,0,0,2.17,2.17h40.35a2.17,2.17,0,0,0,2.17-2.17h0A2.17,2.17,0,0,0,105.58,81.44Z" style="fill:#d9dbdb"/><path d="M105.58,92.26H65.23a2.17,2.17,0,0,0-2.17,2.17h0a2.17,2.17,0,0,0,2.17,2.17h40.35a2.17,2.17,0,0,0,2.17-2.17h0A2.17,2.17,0,0,0,105.58,92.26Z" style="fill:#d9dbdb"/><path d="M87.26,102.76h-22a2.17,2.17,0,0,0-2.17,2.17h0a2.17,2.17,0,0,0,2.17,2.17h22a2.17,2.17,0,0,0,2.17-2.17h0A2.17,2.17,0,0,0,87.26,102.76Z" style="fill:#d9dbdb"/><path d="M134.42,99v43.34a5.52,5.52,0,0,1-5.51,5.51H49.55a5.51,5.51,0,0,1-5.49-5.51V99l45.18,26.64Z" style="fill:#ffb031"/><path d="M132.89,146.16l-29.08-29.08-14.57,8.59-14.58-8.6L45.58,146.16a5.46,5.46,0,0,0,4,1.73h79.36A5.48,5.48,0,0,0,132.89,146.16Z" style="fill:#ff9433"/><path d="M143.55,39.53a27.25,27.25,0,0,0-24.33,25A27,27,0,0,0,124,82a6.58,6.58,0,0,1,.63,6.27l-2.14,5.16,8.77-2.27a6.61,6.61,0,0,1,4.29.33,27.14,27.14,0,1,0,8-51.92Z" style="fill:#00c8b7"/><path d="M147,80.26l1.49-1.49s-1.18-2.79,3.78-7.5c3-2.8,3.62-5.52,3.38-7.74a7.75,7.75,0,0,0-6.8-6.8c-2.22-.24-4.93.42-7.73,3.38-4.71,5-7.5,3.78-7.5,3.78l-1.49,1.49Z" style="fill:#fff"/><path d="M135.45,71.14a4.11,4.11,0,0,0,5.75,5.75Z" style="fill:#fff"/><path d="M156.66,58.54l-.93.93a9,9,0,0,0-2.86-2.85l.94-.94a2,2,0,1,1,2.86,2.86Z" style="fill:#fff"/><path d="M145.56,39.42a23.44,23.44,0,1,1-24,38.33A27.21,27.21,0,0,0,124,82a6.58,6.58,0,0,1,.63,6.27l-2.14,5.16,8.77-2.27a6.61,6.61,0,0,1,4.29.33,27.14,27.14,0,1,0,10-52Z" style="fill:#08b29d"/><path d="M4.24,16.91l5.93,13.6a1.37,1.37,0,0,1-.71,1.8l-.21.09a1.37,1.37,0,0,1-1.8-.72L1.73,18a1.37,1.37,0,0,1,.79-1.81h0A1.37,1.37,0,0,1,4.24,16.91Z" style="fill:#ffb031"/><path d="M27.46,112.6A4.36,4.36,0,1,0,31.82,117,4.36,4.36,0,0,0,27.46,112.6Zm0,6.12A1.76,1.76,0,1,1,29.22,117,1.76,1.76,0,0,1,27.46,118.72Z" style="fill:#baf4ee"/><path d="M144.21,130.23a4.36,4.36,0,1,0,4.36,4.36A4.36,4.36,0,0,0,144.21,130.23Zm0,6.12a1.76,1.76,0,1,1,1.76-1.76A1.76,1.76,0,0,1,144.21,136.35Z" style="fill:#baf4ee"/><path d="M179.85,62.56a3.34,3.34,0,1,0,3.34,3.34A3.34,3.34,0,0,0,179.85,62.56Zm0,4.69a1.35,1.35,0,1,1,1.35-1.35A1.35,1.35,0,0,1,179.85,67.25Z" style="fill:#baf4ee"/><path d="M121.11,9.2a3.53,3.53,0,1,0,3.53,3.53A3.53,3.53,0,0,0,121.11,9.2Zm0,5a1.43,1.43,0,1,1,1.43-1.43A1.43,1.43,0,0,1,121.11,14.16Z" style="fill:#baf4ee"/><circle cx="8.29" cy="95.09" r="3.71" style="fill:#baf4ee"/><circle cx="157.07" cy="106.35" r="2.7" style="fill:#baf4ee"/><circle cx="67.75" cy="14.25" r="3.94" style="fill:#baf4ee"/><circle cx="88.86" cy="155.97" r="2.87" style="fill:#baf4ee"/><circle cx="144.46" cy="28.89" r="3.37" style="fill:#baf4ee"/><circle cx="25.04" cy="53.65" r="1.92" style="fill:#baf4ee"/><circle cx="181.01" cy="49.03" r="3.27" style="fill:#baf4ee"/><circle cx="6.45" cy="65.17" r="2.09" style="fill:#baf4ee"/><path d="M94.27,3.31,95.59,2A1.17,1.17,0,0,0,93.93.34L92.62,1.65,91.31.34A1.17,1.17,0,1,0,89.65,2L91,3.31,89.65,4.62a1.17,1.17,0,1,0,1.65,1.65L92.62,5l1.31,1.31a1.17,1.17,0,1,0,1.65-1.65Z" style="fill:#baf4ee"/><path d="M5,43l1.31-1.31A1.17,1.17,0,0,0,4.62,40L3.31,41.3,2,40A1.17,1.17,0,0,0,.34,41.64L1.65,43,.34,44.27A1.17,1.17,0,1,0,2,45.92l1.31-1.31,1.31,1.31a1.17,1.17,0,1,0,1.65-1.65Z" style="fill:#baf4ee"/><path d="M159.71,123.07l1.11-1.11a1,1,0,0,0-1.4-1.4l-1.11,1.11-1.11-1.11a1,1,0,1,0-1.4,1.4l1.11,1.11-1.11,1.11a1,1,0,1,0,1.4,1.4l1.11-1.11,1.11,1.11a1,1,0,0,0,1.4-1.4Z" style="fill:#baf4ee"/></g></g></svg>