<svg xmlns="http://www.w3.org/2000/svg" viewBox="0 0 749.61 393.76"><title>perro-flat_1</title><g style="isolation:isolate"><g id="Capa_2" data-name="Capa 2"><g id="Capa_1-2" data-name="Capa 1"><path d="M472.61,232.59s-16.32,24.63-35.47,19.34-29.24-14.46-29.24-14.46,6.14,16.44,14.5,19.3-15,.6-24.84-12.44,11.73,28.51,30.17,25.84c0,0-15.92,8.67-24,3.61s46.93,46.13,85.79-12.6S472.61,232.59,472.61,232.59Z" style="fill:#d08c32"/><path d="M468.63,250.35c-1.84,1.11-3.71,2.17-5.64,3.15-2.12.69-4.26,1.33-6.43,1.87-1.95.45-9,1.2-8.45,1.27a108,108,0,0,1-11.68.06c-1.94-.11-10.19-1.43-8.75-1a95.13,95.13,0,0,1-10.86-2.89c-5.37-5.81-8.93-15.3-8.93-15.3s10.09,9.16,29.24,14.46,35.47-19.34,35.47-19.34,15.5-8.37,24.47-7.68A56.66,56.66,0,0,0,468.63,250.35Z" style="fill:#cd7d1e"/><path d="M454.63,369.09c10.62,9.37,27.51,10.62,24.38,4.37s3.75-25.63,3.75-25.63l8.12,5c-5,40,20.63,35.63,35.65,35s8.74-27.51,8.74-27.51l39.39-1.88c1.88,17.51,17.5,30,17.5,30,17.5,13.13,37.51-1.87,34.38-5.62s-4.38-25-3.13-35S639.67,341,639.67,341c0,23.13,10.63,31.88,10.63,31.88,39.38,13.75,39.38-8.13,39.58-9.38s-7.53-9.17-3.51-39.55c.66,1.35,1.31,2.7,1.91,4.08s1.07-2.95,1-3.37c-.34-3.35-.87-6.63-1.48-9.9.19-1,.39-2.08.6-3.16,0-.21.07-.42.11-.63,2.3,3.47,4.69,6.89,7.22,10.24.36.48.66-3,.49-3.5a169.43,169.43,0,0,1-6.59-26.25,77.25,77.25,0,0,0-1-7.72c-.1-1.1-.21-2.22-.27-3.33s-.37-1.34-.61-.94a90.9,90.9,0,0,0-20-38.51s-1.88-32.51-116.28-41.88S450.26,317.83,445.08,336.58,444,359.71,454.63,369.09Z" style="fill:#f7ebc2"/><path d="M493.87,245.85c-25.19,21.6-39.39,51-47.66,82.35,2.7-34,2.06-137.61,105.32-129.15,68.78,5.64,96.86,19.63,108.34,29.9C607.33,201.91,539,207.09,493.87,245.85Z" style="fill:#f4e19d"/><path d="M544,90.91s-73.14-28.76-93.77,37.5,25.63,75,46.88,60.64,10.63-58.14,31.88-53.76S581.54,100.28,544,90.91Z" style="fill:#d08c32"/><path d="M526,93.49c-32.45-4.33-65.16,22.55-71.68,53.71a113,113,0,0,0-1.78,36.4c-7.89-10.15-10.86-27.71-2.3-55.19C470.89,62.15,544,90.91,544,90.91c12.09,3,17,9.17,17.45,16C551.08,97.75,539.8,95.33,526,93.49Z" style="fill:#cd7d1e"/><path d="M535.88,108.84s-43.69-18.22-56,23.77,15.31,47.52,28,38.41,6.35-36.83,19-34.06S558.29,114.78,535.88,108.84Z" style="fill:#ecdcc5"/><path d="M534.73,111.65H534a53.73,53.73,0,0,0-53.74,53.74c0,.26,0,.52,0,.78-4-6.6-5.2-17.36-.45-33.56,12.33-42,56-23.77,56-23.77a17.32,17.32,0,0,1,7.13,3.53A53,53,0,0,0,534.73,111.65Z" style="fill:#aa8041;opacity:0.2"/><path d="M622.75,67.68s7.62-78.22,76-66.48,55.18,56.92,32.71,69.32-56.62-17-62.38,4S614.05,105.36,622.75,67.68Z" style="fill:#d08c32"/><path d="M633.24,52.82c10.89-30.88,49.7-47.8,80.41-39.45a113.05,113.05,0,0,1,33.24,15C741.43,16.69,727.13,6.07,698.77,1.2c-68.4-11.73-76,66.48-76,66.48-2.8,12.15.44,19.32,6.29,22.79C625.64,77.08,628.62,65.92,633.24,52.82Z" style="fill:#cd7d1e"/><path d="M642.42,68.58S646,21.38,689,29.47s35.38,35.24,21.49,42.41-35.69-11.08-39,1.49S637.53,91.23,642.42,68.58Z" style="fill:#ecdcc5"/><path d="M645.45,68.83l.33-.65a53.74,53.74,0,0,1,72.29-23.44c.23.12.44.26.67.39-4.06-6.56-13.1-12.52-29.69-15.65-43-8.1-46.62,39.1-46.62,39.1a17.29,17.29,0,0,0-.1,8A53.06,53.06,0,0,1,645.45,68.83Z" style="fill:#aa8041;opacity:0.2"/><path d="M627.17,279.07c91.27-17.5,203.16-143.78,8.12-219.42,0,0-22.42-6.19-46.65-1.72-.43-.05-.88-.08-1.34-.09a46.14,46.14,0,0,0,6.33-5.64c.61-.66.85-4.13,0-4.64-7.53-4.35-13.33,1.6-19.32,6.74a33.67,33.67,0,0,0,3.91-16.05c0-.21,0-2.27-.55-2.2-14.32,1.88-22.21,25.44-23.07,37.76-10,8.84-18.21,21.83-22.44,40.84C514.65,193.43,535.9,296.58,627.17,279.07Z" style="fill:#f7ebc2"/><path d="M634.05,260.88c45.11-3.08,85.75-37,107.2-79.54-10.12,47.5-65,88.32-114.08,97.73-59.59,11.43-89.33-28.58-97.92-79.66C550,238.72,585.59,267.37,634.05,260.88Z" style="fill:#f4e19d"/><path d="M602.17,113.41s26.88,10,23.76,70.64-82.52,40-76.89-3.12S570.28,104.66,602.17,113.41Z" style="fill:#d08c32"/><path d="M634.22,216.57c7.89,12.12,29.15,12.26,47.5.32s26.81-31.43,18.93-43.55-29.15-12.27-47.5-.33S626.33,204.45,634.22,216.57Z" style="fill:#353634"/><ellipse cx="667.17" cy="130.05" rx="7.64" ry="13.78" transform="translate(133.61 551.17) rotate(-49.31)" style="fill:#353634"/><circle cx="666.68" cy="120.73" r="4.34" transform="translate(140.6 547.67) rotate(-49.33)" style="fill:#fff"/><ellipse cx="592.44" cy="168.93" rx="7.64" ry="13.79" transform="translate(-13.77 59.24) rotate(-5.66)" style="fill:#353634"/><circle cx="585.09" cy="163.18" r="4.34" transform="translate(-13.21 58.34) rotate(-5.64)" style="fill:#fff"/><ellipse cx="570.6" cy="138.69" rx="10.22" ry="4.28" transform="translate(66.01 439.04) rotate(-44.42)" style="fill:#fff"/><ellipse cx="650.03" cy="91.4" rx="10.22" ry="4.28" transform="matrix(0.96, -0.29, 0.29, 0.96, 1.92, 195.53)" style="fill:#fff"/><g style="mix-blend-mode:multiply"><path d="M18.34,357.93c-7.08-.64-13.69,1.82-14.79,5.51-.72,2.47,1.87,4.33,1.87,4.33,1.54,1.11,1.08,2.65-1,3.43,0,0-3.53,1.31-4.26,3.78-1.09,3.69,3.76,7.2,10.84,7.84a18.58,18.58,0,0,0,12.22-3.48c1.41-1.12,2.57-2.06,2.58-2.08s2-.42,4.4-.9c0,0,5.76-1.12,6.6-4s-4-4.95-4-4.95c-2-.87-3.67-1.6-3.66-1.63s-.55-1.12-1.24-2.43C27.93,363.39,25.4,358.57,18.34,357.93Z" style="fill:#0071bc"/><path d="M44.55,371.5c-2.92.13-5.48-1.07-5.72-2.69h0c-.2-1.89,1.92-3.43,4.83-3.56l8-.27c3.69,0,7.83,1.12,8.18,3.33h0c.81,3.17.38,3.07-7.17,3.15Z" style="fill:#0071bc"/><path d="M41.73,357.06l-5.21,1.35a3.54,3.54,0,0,0-2.65,2,1.64,1.64,0,0,0,.44,1.62c1.18,1.34,4.08,1.88,6.49,1.23l6.84-1.56c1.74-.39,2.82-1.15,3.08-2.05a.61.61,0,0,0,0-.29c-.27-.82-4-2-6.57-2.33A5.63,5.63,0,0,0,41.73,357.06Z" style="fill:#0071bc"/><path d="M43.69,374.43c-2.69-.64-5.81.05-7,1.54h0c-1.27,1.76-.15,3.59,2.53,4.23l7.4,1.67c3.48.69,8.07.32,9.66-1.71h0c2.59-2.86,2.13-2.84-5-4.25Z" style="fill:#0071bc"/><path d="M32.71,387.62l-4.17-2.21c-1.16-.64-1.62-1.52-1.38-2.34a2.61,2.61,0,0,1,1.36-1.46,7.82,7.82,0,0,1,6.86,0L41,384.28c1.42.68,2,1.59,1.74,2.49a.84.84,0,0,1-.13.29c-.72.73-5,1.17-7.57,1A4.9,4.9,0,0,1,32.71,387.62Z" style="fill:#0071bc"/></g><g style="mix-blend-mode:multiply"><path d="M196.46,357.82c-7.35-.9-14.54,1.48-16.06,5.32-1,2.56,1.51,4.6,1.51,4.6,1.5,1.21.86,2.81-1.41,3.56,0,0-3.83,1.26-4.85,3.82-1.52,3.84,3.2,7.67,10.56,8.56a20.56,20.56,0,0,0,13.16-3.25c1.59-1.14,2.9-2.08,2.92-2.11s2.13-.38,4.7-.8c0,0,6.15-1,7.33-4s-3.66-5.31-3.66-5.31c-2-1-3.68-1.8-3.67-1.82s-.47-1.19-1.06-2.59C206,363.84,203.8,358.72,196.46,357.82Z" style="fill:#0071bc"/><path d="M222.56,372.87c-3.07,0-5.63-1.3-5.72-3h0c0-2,2.36-3.54,5.43-3.59l8.39,0c3.87.07,8.09,1.41,8.23,3.74h0c.53,3.35.09,3.23-7.83,3.07Z" style="fill:#0071bc"/><path d="M221.07,357.64l-5.6,1.26a4,4,0,0,0-3,2,1.66,1.66,0,0,0,.29,1.72c1.1,1.44,4.08,2.1,6.69,1.49l7.33-1.42c1.86-.35,3.07-1.12,3.43-2.05a.67.67,0,0,0,.07-.31c-.19-.86-4-2.21-6.65-2.65A5.89,5.89,0,0,0,221.07,357.64Z" style="fill:#0071bc"/><path d="M221.35,375.91c-2.76-.76-6.09-.13-7.46,1.4h0c-1.52,1.8-.53,3.76,2.23,4.52l7.59,2c3.57.84,8.42.59,10.3-1.49h0c3-2.91,2.52-2.91-4.79-4.61Z" style="fill:#0071bc"/><path d="M208.5,389.39,204.36,387c-1.15-.71-1.54-1.64-1.21-2.5a3,3,0,0,1,1.57-1.49,8.2,8.2,0,0,1,7.19.2l5.58,3c1.42.76,1.94,1.73,1.57,2.67a.87.87,0,0,1-.17.3c-.82.74-5.31,1.07-8,.86A4.9,4.9,0,0,1,208.5,389.39Z" style="fill:#0071bc"/></g><g style="mix-blend-mode:multiply"><path d="M391.23,360.43c-7.35-.9-14.54,1.48-16.06,5.32-1,2.56,1.51,4.6,1.51,4.6,1.5,1.21.86,2.81-1.41,3.56,0,0-3.83,1.26-4.84,3.82-1.52,3.84,3.2,7.67,10.56,8.56A20.56,20.56,0,0,0,394.15,383c1.59-1.13,2.9-2.08,2.91-2.11s2.13-.38,4.71-.8c0,0,6.15-1,7.33-4s-3.66-5.31-3.66-5.31c-2-1-3.68-1.79-3.67-1.82s-.47-1.19-1.06-2.59C400.72,366.45,398.56,361.32,391.23,360.43Z" style="fill:#0071bc"/><path d="M417.32,375.48c-3.07,0-5.63-1.3-5.72-3h0c0-2,2.36-3.53,5.43-3.58l8.39,0c3.87.07,8.09,1.42,8.23,3.74h0c.53,3.35.09,3.23-7.83,3.07Z" style="fill:#0071bc"/><path d="M415.84,360.24l-5.6,1.26a4.06,4.06,0,0,0-3,2,1.67,1.67,0,0,0,.3,1.72c1.1,1.44,4.08,2.1,6.69,1.49l7.33-1.42c1.86-.35,3.07-1.12,3.43-2.05a.65.65,0,0,0,.08-.31c-.19-.86-4-2.21-6.65-2.65A5.91,5.91,0,0,0,415.84,360.24Z" style="fill:#0071bc"/><path d="M416.12,378.51c-2.76-.76-6.09-.13-7.46,1.4h0c-1.52,1.8-.53,3.76,2.23,4.52l7.59,2c3.57.84,8.42.59,10.3-1.49h0c3-2.91,2.51-2.91-4.79-4.61Z" style="fill:#0071bc"/><path d="M403.27,392l-4.14-2.44c-1.15-.71-1.54-1.64-1.21-2.5a3,3,0,0,1,1.57-1.49,8.2,8.2,0,0,1,7.19.2l5.59,3c1.42.75,1.94,1.73,1.57,2.66a.85.85,0,0,1-.17.3c-.83.74-5.31,1.07-8,.86A4.9,4.9,0,0,1,403.27,392Z" style="fill:#0071bc"/></g><g style="mix-blend-mode:multiply"><path d="M95.68,342.55c-6.4,1.26-9.85,5-7.7,8.32,1.43,2.23,5.12,3.12,5.12,3.12,2.19.53,3.08,1.92,2,3.1a3.54,3.54,0,0,0-.41,4.21c2.14,3.34,9.05,5,15.45,3.75s7.27-6,7.27-6c.24-1.29.43-2.36.41-2.38s1.3-.86,2.91-1.86c0,0,3.85-2.39,2.19-5s-7.37-3.09-7.37-3.09c-2.39-.21-4.36-.4-4.37-.42l-3-1.7S102.06,341.29,95.68,342.55Z" style="fill:#0071bc"/><path d="M128.59,347.15c-2.31.85-5.43.5-7-.78h0c-1.72-1.52-1.24-3.33,1.07-4.18l6.38-2.25c3-1,7.41-1.06,9.52.68h0c3.29,2.42,2.85,2.45-3.34,4.43Z" style="fill:#0071bc"/><path d="M114.34,335.89l-3.21,2.45a1.66,1.66,0,0,0-.57,2.31,3.34,3.34,0,0,0,1.7,1.23,7.18,7.18,0,0,0,6.39-.63l4.39-3c1.12-.77,1.38-1.67.86-2.48a1,1,0,0,0-.21-.26c-.89-.61-5-.62-7.37-.26A3.92,3.92,0,0,0,114.34,335.89Z" style="fill:#0071bc"/><path d="M130.29,349.79c-2.76.15-4.78,1.51-4.51,3h0c.4,1.78,2.84,3,5.6,2.87l7.51-.49c3.45-.3,7-1.77,6.6-3.87h0c-.21-3-.58-2.89-7.64-2.26Z" style="fill:#0071bc"/><path d="M132.07,363.51l-5.27-.77a4.43,4.43,0,0,1-3.07-1.6,1.46,1.46,0,0,1-.08-1.55c.69-1.36,3.22-2.13,5.67-1.75l6.85.81a4.74,4.74,0,0,1,3.5,1.62.74.74,0,0,1,.13.27c0,.78-3.14,2.23-5.41,2.79A5.14,5.14,0,0,1,132.07,363.51Z" style="fill:#0071bc"/></g><g style="mix-blend-mode:multiply"><path d="M279.59,342.55c-6.4,1.26-9.85,5-7.7,8.32C273.32,353.1,277,354,277,354c2.19.53,3.08,1.92,2,3.1a3.54,3.54,0,0,0-.41,4.21c2.14,3.34,9.06,5,15.45,3.75s7.27-6,7.27-6c.24-1.29.43-2.36.41-2.38s1.3-.86,2.91-1.86c0,0,3.85-2.39,2.19-5s-7.37-3.09-7.37-3.09c-2.39-.21-4.36-.4-4.37-.42s-1.38-.79-3-1.7C292,344.64,286,341.29,279.59,342.55Z" style="fill:#0071bc"/><path d="M312.5,347.15c-2.31.85-5.43.5-7-.78h0c-1.72-1.52-1.24-3.33,1.07-4.18l6.38-2.25c3-1,7.41-1.06,9.51.68h0c3.29,2.42,2.85,2.45-3.34,4.43Z" style="fill:#0071bc"/><path d="M298.25,335.89l-3.2,2.45a1.66,1.66,0,0,0-.57,2.31,3.34,3.34,0,0,0,1.7,1.23,7.18,7.18,0,0,0,6.4-.63l4.39-3c1.12-.77,1.38-1.67.86-2.48a1,1,0,0,0-.21-.26c-.89-.61-5-.62-7.37-.26A3.92,3.92,0,0,0,298.25,335.89Z" style="fill:#0071bc"/><path d="M314.2,349.79c-2.76.15-4.78,1.51-4.51,3h0c.4,1.78,2.84,3,5.6,2.87l7.51-.49c3.45-.3,7-1.77,6.6-3.87h0c-.21-3-.58-2.89-7.64-2.26Z" style="fill:#0071bc"/><path d="M316,363.51l-5.27-.77a4.44,4.44,0,0,1-3.07-1.6,1.47,1.47,0,0,1-.08-1.55c.69-1.36,3.22-2.13,5.67-1.75l6.85.81a4.74,4.74,0,0,1,3.5,1.62.75.75,0,0,1,.13.27c0,.78-3.14,2.23-5.41,2.79A5.14,5.14,0,0,1,316,363.51Z" style="fill:#0071bc"/></g></g></g></g></svg>